<svg version="1.1" id="Layer_1" xmlns="http://www.w3.org/2000/svg" xmlns:xlink="http://www.w3.org/1999/xlink" x="0px" y="0px"
	 width="100%" viewBox="0 0 1080 1080" enable-background="new 0 0 1080 1080" xml:space="preserve">
<path fill="#000000" opacity="1.000000" stroke="none" 
	d="
M603.000000,1081.000000 
	C402.023132,1081.000000 201.546280,1081.000000 1.034705,1081.000000 
	C1.034705,721.064697 1.034705,361.129364 1.034705,1.097018 
	C360.893768,1.097018 720.787598,1.097018 1080.840698,1.097018 
	C1080.840698,360.999939 1080.840698,720.999939 1080.840698,1081.000000 
	C921.795593,1081.000000 762.647766,1081.000000 603.000000,1081.000000 
M793.723083,883.968933 
	C797.570435,881.474548 801.417786,878.980164 805.429932,876.378906 
	C800.527222,863.058289 795.781616,850.164490 790.621399,836.144226 
	C802.221680,843.814697 812.655701,850.779236 823.194214,857.582092 
	C824.253113,858.265686 826.378967,858.613953 827.264893,858.015503 
	C830.720032,855.681213 833.875305,852.903015 837.908142,849.677307 
	C819.808655,837.923584 802.197571,826.487061 784.590027,815.052856 
	C783.485352,816.060608 782.590942,817.078369 781.511169,817.829834 
	C772.005920,824.445312 772.181152,824.357910 776.378906,834.919495 
	C779.887634,843.747498 782.896790,852.774109 786.559570,862.909363 
	C774.624451,855.128479 763.860107,848.110962 752.836914,840.924622 
	C749.762207,843.265991 746.537720,845.687256 743.352783,848.159485 
	C741.380066,849.690735 740.741028,851.124268 741.851440,853.977173 
	C748.967529,872.260498 755.721863,890.684692 762.946289,910.001343 
	C767.063538,906.570740 770.722229,903.522095 774.042603,900.755432 
	C769.078003,887.510193 764.387207,874.995422 759.696411,862.480652 
	C759.974304,862.286438 760.252197,862.092285 760.530029,861.898071 
	C771.376831,869.128845 782.223633,876.359619 793.723083,883.968933 
M610.997253,945.722656 
	C610.331482,940.397888 609.597900,935.080566 609.015991,929.746643 
	C608.153992,921.846436 607.399475,913.934387 606.571533,905.753601 
	C603.362183,906.197937 600.469971,906.633606 597.568359,906.993347 
	C589.349060,908.012207 580.994995,908.388611 572.929321,910.116699 
	C550.245483,914.976624 543.270081,938.239746 554.522278,956.047607 
	C561.364929,966.876953 572.189026,969.299255 583.718750,968.842285 
	C593.438599,968.456970 603.104309,966.706238 612.831116,965.555481 
	C612.219116,959.237366 611.609497,952.944031 610.997253,945.722656 
M199.517303,471.987030 
	C198.332657,472.995178 197.147995,474.003326 195.240799,475.626343 
	C197.396301,477.467987 199.649979,478.975159 201.357895,480.953522 
	C203.756927,483.732452 206.000824,483.663574 207.658813,480.731598 
	C211.269424,474.346680 215.815964,468.101135 217.649811,461.181091 
	C221.708496,445.865601 216.261520,435.700195 200.891769,431.047333 
	C188.697678,427.355896 176.423355,423.929565 164.195633,420.388702 
	C159.560928,429.562897 159.439560,433.005402 163.671295,434.536377 
	C153.094803,442.159424 151.782333,455.746368 156.398041,464.819763 
	C160.710953,473.297913 171.448929,478.637726 182.445862,475.764038 
	C188.794754,474.104980 193.535126,470.179260 196.461929,464.107971 
	C199.388748,458.036682 199.721268,451.802948 197.896240,445.172791 
	C206.069489,448.727905 208.279190,453.050690 205.514099,460.857513 
	C204.198547,464.571777 201.887421,467.933441 199.517303,471.987030 
M866.205627,364.733276 
	C874.569946,365.975281 881.878784,363.605560 886.899536,356.885529 
	C892.934143,348.808624 892.485535,337.890808 886.754456,329.253723 
	C881.611816,321.503235 876.499512,313.732635 871.129211,305.600586 
	C854.836792,316.464813 838.652161,327.241669 822.514954,338.089172 
	C822.007202,338.430420 821.550415,339.784180 821.810608,340.185150 
	C824.248718,343.941833 826.848633,347.593506 829.478638,351.386383 
	C833.519104,348.660614 837.056702,346.147827 840.747375,343.884735 
	C841.539551,343.398956 843.589844,343.406311 843.866211,343.881348 
	C846.376282,348.196381 851.799072,351.920044 847.075195,357.975098 
	C846.130249,359.186462 845.447510,360.866699 845.309509,362.390961 
	C844.976013,366.074585 840.428711,369.107697 843.822937,373.396240 
	C846.341797,376.578674 848.494080,380.051208 851.138916,383.869873 
	C854.310364,375.932251 857.111084,368.922760 859.756958,362.300629 
	C862.266479,363.079376 863.946655,363.600769 866.205627,364.733276 
M290.847961,869.985535 
	C293.382874,870.475220 295.917786,870.964905 298.026306,871.372192 
	C296.036499,878.959961 304.520386,878.832764 306.946930,883.860229 
	C320.616608,866.944824 333.759125,850.681641 346.989410,834.309937 
	C343.259094,831.335083 339.725037,828.516724 335.808380,825.393250 
	C331.547638,830.464233 327.552704,835.218872 323.368713,840.198486 
	C322.687317,839.089294 322.247437,838.581726 322.032410,837.992126 
	C318.556335,828.460266 305.604767,821.505188 296.215179,824.294678 
	C285.891052,827.361816 279.042175,834.255066 277.166748,844.747925 
	C275.172394,855.906067 279.991364,864.377747 290.847961,869.985535 
M692.996948,946.504333 
	C693.777344,946.315857 694.552612,946.102112 695.338989,945.943237 
	C699.618103,945.078125 700.593811,942.884216 699.036316,938.705566 
	C694.844421,927.458801 690.998474,916.083191 687.011169,904.760132 
	C684.546204,897.760315 682.073730,890.763184 679.155945,882.492981 
	C675.577698,887.252136 667.801697,883.735535 667.314697,891.514771 
	C655.785645,889.005920 645.255493,893.515869 640.341187,903.175537 
	C635.279907,913.124023 638.351196,926.368225 647.479065,933.955933 
	C655.592163,940.700073 667.064575,939.339478 680.675537,929.737610 
	C682.155273,934.222656 683.902100,938.488831 684.930542,942.921753 
	C685.971252,947.407776 688.022644,948.962769 692.996948,946.504333 
M139.000000,566.345947 
	C139.000000,557.331970 139.000000,548.317932 139.000000,539.234741 
	C133.763412,539.234741 130.014511,539.234741 126.818558,539.234741 
	C126.818558,554.609253 126.818558,569.732361 126.818558,584.280640 
	C147.312424,584.280640 166.985458,584.280640 187.000000,584.280640 
	C187.000000,571.614807 186.946060,559.664551 187.014267,547.715027 
	C187.091614,534.167969 186.827301,537.310547 176.067032,537.062073 
	C175.802292,537.055969 175.530518,537.354919 174.877945,537.735840 
	C174.877945,548.258606 174.877945,558.997375 174.877945,569.742798 
	C170.410782,569.742798 166.340500,569.742798 161.889526,569.742798 
	C161.889526,560.415771 161.889526,551.340820 161.889526,542.305847 
	C149.999878,541.379211 149.998611,541.379211 150.001251,552.439575 
	C150.001678,554.271179 149.897659,556.113159 150.052704,557.932312 
	C150.391541,561.908142 150.865860,565.872375 151.301544,569.999756 
	C147.472580,569.999756 144.615509,570.237854 141.836258,569.876770 
	C140.797516,569.741821 139.940262,568.210083 139.000000,566.345947 
M395.505035,224.003662 
	C396.434479,226.622208 397.363922,229.240753 398.299469,231.876526 
	C403.155457,230.074249 407.628693,228.414017 412.163696,226.730865 
	C410.291382,221.398758 408.563934,216.479141 406.960785,211.913528 
	C413.045105,209.204880 418.894775,206.992828 424.370636,204.078430 
	C434.658142,198.603088 437.619110,190.411530 435.654144,181.668335 
	C432.992523,169.825211 425.469727,162.740692 414.184113,164.375290 
	C401.835114,166.163925 389.909576,170.876495 378.261536,174.183548 
	C378.122162,175.827393 377.986115,176.183548 378.084106,176.455276 
	C383.722961,192.088272 389.381226,207.714279 395.505035,224.003662 
M192.706284,693.997314 
	C199.434433,694.642761 206.162582,695.288269 213.365906,695.979309 
	C212.107056,691.966614 211.357819,688.468140 209.880524,685.310303 
	C209.070969,683.579712 207.219025,682.085083 205.482147,681.128845 
	C204.330582,680.494812 202.534912,680.864502 201.054092,681.026733 
	C197.075226,681.462646 194.847824,680.424316 193.810196,675.909363 
	C192.211365,668.952759 189.556107,662.238953 187.279846,655.208557 
	C190.764359,652.143372 194.319229,649.016296 197.833740,645.924744 
	C196.195480,641.106567 194.672516,636.627441 192.951813,631.566772 
	C190.883514,633.236633 189.208847,634.455566 187.687042,635.842285 
	C183.054901,640.063049 178.574646,644.454407 173.866089,648.586548 
	C164.275787,657.002869 154.550232,665.265076 144.970703,673.693420 
	C144.278458,674.302490 143.844208,675.878845 144.100540,676.773193 
	C145.113159,680.306396 146.319016,683.802246 147.755920,687.183289 
	C148.117493,688.034058 149.556900,688.820923 150.579575,688.935425 
	C160.474930,690.043640 170.395126,690.930176 180.290359,692.039368 
	C184.145767,692.471619 187.955734,693.309082 192.706284,693.997314 
M902.496521,652.000000 
	C896.577881,650.020691 890.659302,648.041382 884.307922,645.917297 
	C882.784180,650.380249 881.258057,654.850037 879.666077,659.512817 
	C881.271301,660.115906 882.450745,660.574463 883.640869,661.003601 
	C890.861023,663.607300 898.292908,665.751282 905.233887,668.958313 
	C910.086731,671.200562 911.143738,676.218384 909.036499,680.824097 
	C906.721924,685.882935 903.782104,687.205139 897.940430,685.455322 
	C889.821960,683.023438 881.755005,680.419495 873.517334,677.842712 
	C872.061096,682.322266 870.664246,686.619080 869.189758,691.154724 
	C877.051819,693.832886 884.610474,696.418518 892.179138,698.974609 
	C893.391602,699.384094 894.647339,699.666443 895.885437,699.998901 
	C910.203613,703.843750 917.487366,696.992920 920.603821,686.574280 
	C921.754517,682.727417 920.789551,678.247803 920.789551,673.639771 
	C928.038757,675.842468 934.247803,677.729065 940.417908,679.603882 
	C941.563660,675.865906 942.229614,673.045349 943.296021,670.385437 
	C944.508301,667.361389 944.342224,665.939758 940.628479,664.771484 
	C928.096191,660.829163 915.740356,656.325867 902.496521,652.000000 
M814.569763,303.045410 
	C816.641357,306.110291 818.997498,304.869904 820.495300,302.852295 
	C825.119995,296.622833 828.785156,290.285980 827.170105,281.666382 
	C825.178162,271.035370 814.847351,261.782288 803.920349,260.991302 
	C792.457825,260.161499 777.530212,269.777802 778.749390,286.792358 
	C779.489807,297.126129 792.948059,314.034271 806.825684,311.579407 
	C806.825684,307.835876 806.825684,304.062439 806.825684,300.305542 
	C796.053955,299.287231 790.791687,292.529236 792.722839,281.239227 
	C800.080322,288.597931 807.057983,295.576752 814.569763,303.045410 
M889.022156,497.069733 
	C891.697266,501.240387 894.231812,505.514648 897.164429,509.495636 
	C897.761902,510.306671 900.402771,510.715454 901.171875,510.116272 
	C905.805908,506.506012 906.068237,503.301422 902.641785,498.150879 
	C897.982361,491.146973 899.149109,482.988586 905.776917,478.879120 
	C907.539124,488.678711 909.149658,498.330505 911.124023,507.907227 
	C911.440735,509.443207 913.589417,511.940186 914.542236,511.789368 
	C920.822021,510.795197 926.903564,508.811554 930.875305,503.378815 
	C937.988892,493.648285 937.386719,482.123596 930.913086,472.768799 
	C920.107666,457.154419 896.787048,461.806396 890.790771,475.376648 
	C887.695740,482.380951 887.630249,489.098938 889.022156,497.069733 
M723.945251,913.570129 
	C734.337524,909.377563 738.981873,901.787598 739.901917,891.795898 
	C740.732483,882.776428 733.565186,871.721375 725.201782,869.167786 
	C712.079651,865.161133 699.669861,869.642151 691.280151,880.463806 
	C687.324219,885.566528 688.074890,886.904541 694.391663,889.080200 
	C696.143372,889.683594 697.852722,890.410034 699.519714,891.056030 
	C704.846313,879.922180 715.715637,876.197449 720.957092,883.436768 
	C711.300659,888.510498 701.650452,893.581055 692.022522,898.639832 
	C694.656677,911.098450 709.352234,920.070312 723.945251,913.570129 
M292.574158,277.951904 
	C295.290009,275.806641 295.837585,273.926758 292.829926,271.216034 
	C285.009674,264.167755 276.334869,261.607605 266.550476,266.079102 
	C257.858673,270.051300 251.961823,277.751099 251.022797,287.935516 
	C249.744110,301.803955 264.782318,316.489014 280.327118,312.247192 
	C290.560211,309.454895 304.102539,295.641388 301.719818,285.425964 
	C292.525818,284.233429 292.525970,284.233521 288.644806,291.849457 
	C288.430237,292.270538 288.234802,292.704193 287.986755,293.104980 
	C285.256104,297.516602 277.674530,302.601318 271.838043,298.408081 
	C278.615540,291.708649 285.327057,285.074463 292.574158,277.951904 
M888.773987,418.966614 
	C889.883423,418.784790 891.128174,418.867462 892.081360,418.380066 
	C901.259338,413.687042 906.154968,406.874817 906.248108,395.819214 
	C906.358337,382.741455 892.256104,366.886780 874.431396,372.701660 
	C863.722473,376.195221 854.665955,388.944702 859.484802,402.989777 
	C861.875610,409.957855 865.083984,416.499664 871.867432,420.233521 
	C874.199158,421.516998 877.494690,423.914459 878.388855,418.307526 
	C878.752563,416.026886 880.184692,413.916595 881.128479,411.733856 
	C871.692627,407.588043 866.964783,396.404938 873.990295,388.869232 
	C878.747803,398.885803 883.419312,408.721252 888.773987,418.966614 
M264.934814,786.420227 
	C263.716034,786.293884 262.497223,786.167542 261.301849,786.043640 
	C260.771088,790.168945 260.298798,793.839783 259.826996,797.506714 
	C271.524261,799.036316 278.055939,808.598328 273.187714,816.729919 
	C265.626801,808.466492 258.095978,800.235962 250.585266,792.027405 
	C237.895752,801.232483 236.726700,813.091125 242.069183,823.394531 
	C247.288376,833.460144 259.775208,839.579956 269.768341,836.742554 
	C281.527893,833.403625 288.943420,823.231567 287.971497,811.429871 
	C287.067383,800.451660 274.343964,786.667175 264.934814,786.420227 
M231.116470,305.356750 
	C217.908615,312.517670 214.962067,324.757355 217.755646,335.188782 
	C221.193420,348.025635 233.652130,354.334991 245.438156,351.729034 
	C258.870789,348.759033 268.907990,333.588715 266.348511,321.000305 
	C263.735077,321.000305 261.087036,320.989105 258.439148,321.004059 
	C256.532410,321.014832 255.807800,320.927490 255.697388,323.871368 
	C255.339035,333.425293 247.631271,339.766968 238.353516,338.422485 
	C245.341354,329.204529 252.096802,320.293152 258.816254,311.429260 
	C252.931656,304.168640 241.546982,300.596161 231.116470,305.356750 
M878.474670,715.994080 
	C873.487671,726.039490 868.500671,736.084839 863.120117,746.923035 
	C868.302917,748.432190 872.636475,750.332397 877.135437,750.884399 
	C890.600708,752.536316 903.163330,738.213318 902.161194,724.597351 
	C901.556335,716.379395 898.341675,710.289551 891.625366,705.994385 
	C883.482422,700.786804 874.845825,699.945129 866.488586,705.155701 
	C857.641968,710.671448 853.455688,719.063782 852.733215,729.499023 
	C852.186646,737.393677 852.967834,738.336487 860.487793,736.188904 
	C860.952820,736.056030 861.455444,736.039734 861.943176,736.003601 
	C864.442688,735.818542 864.996643,735.191040 864.276611,732.280640 
	C862.229431,724.006165 870.137207,715.039124 878.474670,715.994080 
M540.980530,947.215637 
	C548.352356,935.905518 545.483154,918.786865 531.840210,912.827087 
	C526.023376,910.286011 520.267700,909.913696 514.248108,910.008911 
	C508.447845,910.100708 503.611938,912.238953 499.782104,916.897705 
	C502.208771,919.722473 504.506073,922.396667 506.774780,925.037598 
	C518.563782,919.150879 528.742065,921.279785 529.800537,930.084717 
	C518.559387,929.462891 507.368073,928.843872 496.000061,928.215027 
	C496.000061,931.463074 495.903931,934.282837 496.016815,937.094177 
	C496.484283,948.739014 510.441772,959.894348 521.886902,958.013794 
	C529.359924,956.786011 535.875916,954.017822 540.980530,947.215637 
M413.770966,889.999939 
	C411.240265,890.822388 408.709564,891.644775 406.178864,892.467224 
	C407.334412,895.997192 408.489960,899.527161 409.644012,903.052551 
	C417.370178,900.382935 423.750671,901.186462 427.870178,905.542114 
	C429.579224,907.349243 430.333923,910.058899 431.522644,912.358154 
	C431.064545,912.638184 430.606415,912.918213 430.148315,913.198242 
	C419.892578,909.791687 409.636871,906.385193 399.229889,902.928406 
	C395.706024,908.805054 395.166138,914.843079 396.552185,921.015442 
	C399.075104,932.250244 412.203766,939.388550 424.764954,938.195190 
	C439.687073,936.777527 450.503540,917.431152 442.414215,903.960815 
	C436.185852,893.589478 426.646057,889.264709 413.770966,889.999939 
M706.002014,234.673462 
	C706.789368,245.654190 716.171814,253.092270 727.484741,253.196335 
	C729.550110,259.483704 735.560669,259.988495 739.325134,262.696045 
	C743.611938,255.571823 747.778259,248.348770 752.239990,241.313049 
	C757.135803,233.592880 757.488953,223.554901 752.676025,218.162140 
	C747.942505,212.858505 742.509949,208.460495 735.366821,207.043106 
	C722.743164,204.538300 722.687805,203.371826 723.069458,216.080307 
	C723.077515,216.349365 723.414124,216.608551 723.603333,216.868286 
	C737.098999,217.390289 742.740845,221.778137 741.544800,231.335770 
	C740.443359,230.841614 739.455322,230.431870 738.496521,229.962387 
	C733.772400,227.649414 729.217834,224.873337 724.301636,223.095200 
	C715.457581,219.896454 710.499268,223.029205 706.002014,234.673462 
M447.014221,203.978745 
	C449.874023,208.803955 454.255829,211.588989 459.686920,211.895905 
	C466.695953,212.291977 473.064453,210.136353 477.489655,205.367828 
	C482.630707,210.112259 487.314697,204.823273 492.425293,206.032761 
	C490.091583,194.992325 488.390839,184.468384 485.536469,174.267242 
	C483.445618,166.794724 476.884766,163.223099 469.102600,162.940689 
	C461.185455,162.653397 454.155151,164.937027 447.459351,168.924576 
	C442.479004,171.890503 442.228851,172.527542 445.631470,177.162476 
	C446.837280,178.804977 448.071075,180.426926 449.320709,182.096390 
	C458.894470,172.942596 471.032532,172.595932 472.568420,180.269333 
	C466.112396,182.282944 459.515076,183.819519 453.355927,186.401443 
	C446.572205,189.245193 444.346588,196.084808 447.014221,203.978745 
M630.794006,214.998169 
	C641.680176,214.706741 650.493652,211.457535 655.292236,200.397842 
	C659.099915,191.622040 656.403503,177.674866 647.522217,171.860336 
	C641.472534,167.899719 635.139771,167.042221 628.185974,166.866150 
	C620.227905,166.664642 611.606262,172.330292 608.440796,180.223953 
	C604.918091,189.008530 605.250122,197.647751 611.868103,205.472000 
	C616.702759,211.187881 623.278137,212.997055 630.794006,214.998169 
M354.635437,906.046265 
	C356.523773,905.671936 358.540070,905.603271 360.280334,904.875000 
	C374.816925,898.792175 380.893738,877.882568 366.726471,865.133057 
	C356.711456,856.120178 341.938202,855.111511 333.275787,862.293640 
	C324.596924,869.489563 321.074554,880.664368 326.596649,892.046387 
	C330.530579,900.155029 343.310669,908.347900 354.635437,906.046265 
M678.986023,180.481445 
	C676.592346,179.599182 674.198608,178.716919 671.506714,177.724716 
	C665.599670,192.076172 659.772522,206.233704 653.848389,220.626785 
	C658.232483,222.414749 662.455505,224.137039 666.906738,225.952393 
	C667.679321,224.446106 668.406494,223.205505 668.972412,221.895279 
	C671.827576,215.285156 674.465637,208.574722 677.522095,202.060043 
	C680.143311,196.472961 687.225281,195.272995 691.830444,199.329224 
	C695.689758,202.728516 696.070923,205.850739 693.451050,212.087997 
	C690.491577,219.133514 687.563293,226.192093 684.505737,233.522293 
	C688.179749,234.853912 691.515503,235.642044 694.414978,237.227905 
	C697.542419,238.938416 698.558472,237.310135 699.526794,234.980164 
	C702.660217,227.440414 706.114929,220.009689 708.779175,212.306427 
	C711.375000,204.801041 710.824707,197.625534 704.330078,191.762527 
	C698.151733,186.185120 690.946411,185.335205 683.154419,186.387726 
	C683.447510,185.069550 683.740234,183.752762 684.024597,182.473648 
	C682.344421,181.895905 680.989380,181.429977 678.986023,180.481445 
M216.963989,387.456757 
	C212.850983,385.287811 208.661469,383.250366 204.645798,380.914154 
	C200.350677,378.415405 199.235413,372.217255 201.965042,367.333893 
	C204.658478,362.515289 208.122833,361.522644 213.444870,364.176392 
	C215.306763,365.104767 217.011108,366.344025 218.845779,367.332977 
	C224.583542,370.425751 230.349136,373.466888 236.169052,376.562683 
	C238.663635,372.070374 240.797729,368.227234 243.163437,363.967010 
	C233.943130,359.065979 225.167831,354.026703 216.058136,349.689819 
	C209.893585,346.755035 203.376892,346.606873 197.889709,351.654633 
	C191.951996,357.116791 188.026886,363.494812 189.926620,372.085968 
	C189.975449,372.306702 189.646454,372.610962 189.327484,373.164825 
	C188.311310,372.499908 187.322815,371.853088 185.991470,370.981934 
	C183.777283,375.026398 181.642380,378.926025 179.274536,383.251160 
	C193.193481,390.922913 206.587570,398.305359 220.103317,405.754883 
	C221.520630,402.944977 222.463150,400.919434 223.546829,398.972473 
	C224.603531,397.073975 225.804535,395.255798 227.047272,393.231140 
	C223.678314,391.385193 220.588669,389.692291 216.963989,387.456757 
M926.976929,524.755920 
	C927.430176,525.778809 927.910339,526.790771 928.332703,527.826233 
	C932.068665,536.987000 929.801392,543.190308 922.848511,544.485107 
	C921.903137,537.919556 921.193176,531.284973 919.925354,524.758789 
	C919.020569,520.101501 915.884033,516.731567 911.118286,516.107361 
	C905.059387,515.313843 899.308105,516.146851 895.908569,522.386108 
	C892.187744,529.214905 893.339783,540.279785 898.745544,546.764832 
	C897.437988,546.938354 896.281494,547.091858 895.298767,547.222290 
	C895.298767,551.646179 895.298767,555.732300 895.298767,558.994812 
	C905.826355,558.994812 916.104858,559.558350 926.263367,558.700439 
	C930.004517,558.384460 934.136841,555.356567 936.913574,552.443542 
	C943.319519,545.723145 941.565063,537.069397 940.390991,529.058899 
	C939.722534,524.498291 937.279358,520.197754 935.525818,515.485535 
	C931.226440,517.947571 927.981567,519.805786 924.467957,521.817871 
	C925.478333,522.890991 926.035767,523.483093 926.976929,524.755920 
M167.915192,515.974976 
	C166.679688,515.644775 165.450424,515.288818 164.207672,514.988586 
	C157.516708,513.372070 154.380722,508.287048 156.086258,501.796295 
	C157.308929,497.143188 162.028427,495.524139 168.483368,496.685242 
	C174.888046,497.837341 181.414291,498.386353 187.911194,498.891693 
	C189.207947,498.992554 191.635818,497.886780 191.792252,497.021179 
	C192.497131,493.120605 192.572220,489.106262 192.885727,484.983185 
	C181.758896,483.954681 171.200623,482.717987 160.606262,482.088531 
	C153.189621,481.647888 147.336639,485.864136 145.109528,492.889465 
	C143.040527,499.415955 143.380768,506.034607 145.988800,512.556152 
	C144.581711,512.885437 143.267441,513.193054 142.510117,513.370300 
	C141.951019,516.648865 141.417603,519.360718 141.041382,522.094116 
	C140.621140,525.147339 141.223938,526.896973 145.118790,527.139465 
	C151.579239,527.541626 157.974716,528.907349 164.415680,529.724243 
	C171.812042,530.662354 179.228134,531.444885 186.665817,532.298462 
	C187.436035,527.174927 188.099091,522.764160 188.774033,518.274353 
	C182.066605,517.510254 175.430344,516.754272 167.915192,515.974976 
M557.969910,167.000717 
	C563.231201,168.032837 568.492493,169.064941 574.313904,170.206924 
	C575.589233,167.712463 577.225830,164.511566 578.996765,161.047806 
	C569.508240,155.982407 559.786865,154.497314 549.675476,157.192535 
	C541.694275,159.319977 538.877136,163.701447 539.000000,172.327148 
	C539.078979,177.874008 542.849243,182.068054 549.636169,183.840775 
	C553.056396,184.734100 556.658752,185.006851 559.995483,186.113144 
	C561.853271,186.729126 563.334778,188.480286 564.985840,189.719833 
	C563.188354,190.813049 561.497253,192.208008 559.555603,192.892136 
	C558.286072,193.339432 556.584351,192.994598 555.196289,192.591187 
	C550.624756,191.262589 546.107849,189.745667 541.076721,188.144043 
	C539.518433,191.141052 537.806396,194.433746 535.909058,198.082718 
	C546.990784,203.229294 557.823853,205.992538 569.451050,201.983429 
	C575.004456,200.068604 578.862427,195.017517 579.000000,189.774933 
	C579.198242,182.219788 575.297180,178.119354 566.304810,175.960541 
	C561.426941,174.789520 556.649353,173.201019 551.826538,171.800827 
	C551.856567,171.236664 551.886597,170.672501 551.916687,170.108337 
	C553.656433,169.075836 555.396179,168.043320 557.969910,167.000717 
M533.984253,196.172440 
	C539.484375,185.901459 533.745422,177.402939 524.026367,176.031952 
	C520.311401,175.507919 516.475403,175.661743 512.834412,174.866287 
	C510.830261,174.428436 509.116608,172.660736 507.272003,171.492599 
	C509.263031,170.328415 511.225861,168.242966 513.250610,168.181046 
	C518.343445,168.025330 523.464111,168.783203 528.914551,169.200912 
	C529.441589,167.897644 530.070312,165.900635 531.026367,164.074982 
	C532.778320,160.729416 532.381226,158.666946 528.243225,157.962708 
	C519.154968,156.415955 510.149658,155.731186 501.512634,159.921753 
	C495.953552,162.618927 492.896088,169.109924 494.009399,175.574631 
	C494.935699,180.953369 498.486359,183.909561 505.374908,185.000168 
	C509.670074,185.680176 514.007874,186.156799 518.246948,187.087341 
	C519.622070,187.389206 520.744690,188.840988 521.982849,189.766769 
	C520.537476,190.844315 519.185852,192.674637 517.630432,192.868378 
	C511.101532,193.681686 504.575195,193.594284 498.753784,189.822037 
	C497.867737,191.798309 497.042786,193.511368 496.322876,195.267487 
	C494.002747,200.927048 494.349060,201.948074 500.590332,202.905151 
	C505.883759,203.716873 511.305237,203.770386 516.677063,203.974075 
	C523.389648,204.228607 528.891968,201.392136 533.984253,196.172440 
M894.998657,447.143646 
	C894.132690,448.546021 893.266785,449.948425 892.167908,451.727997 
	C885.001465,444.384827 885.690369,435.987701 886.402649,427.431335 
	C882.536804,427.002655 878.926208,426.602295 875.190186,426.188019 
	C874.494568,437.940857 874.528198,449.230560 882.900391,458.662781 
	C886.759827,463.010834 893.242188,465.340912 897.942810,463.566711 
	C903.997131,461.281586 906.117004,458.093018 905.956787,450.728424 
	C905.853394,445.977905 905.155518,441.238342 905.105225,436.489807 
	C905.089539,435.010315 906.320190,433.517639 906.980286,432.031006 
	C908.324158,433.043640 910.328918,433.777344 910.894836,435.118347 
	C913.073364,440.280334 915.536194,445.542999 912.592468,451.846313 
	C916.908936,452.341187 920.812256,452.788696 924.774048,453.242889 
	C925.803101,442.370636 923.664734,433.091614 917.951538,424.754608 
	C914.881592,420.274628 910.136536,418.021759 905.035400,418.201660 
	C899.352295,418.402130 894.075623,421.645599 893.451904,427.438934 
	C892.788391,433.602753 894.385071,440.009888 894.998657,447.143646 
M900.203186,630.726440 
	C900.703735,627.425354 900.415527,623.710876 901.880737,620.915405 
	C904.376282,616.154175 909.233032,615.162598 914.302673,616.151367 
	C918.580627,616.985718 923.766907,621.965027 923.851318,626.007996 
	C923.945435,630.510315 922.131714,634.432922 918.027954,637.106506 
	C916.965881,637.798462 915.910645,639.849243 916.171936,640.967529 
	C916.910461,644.128357 918.333496,647.129272 919.470825,650.150574 
	C930.006897,646.769104 936.787903,636.561096 935.998169,625.933838 
	C935.081421,613.599121 927.527588,603.715332 917.716064,602.012634 
	C905.858276,599.954834 894.341797,605.373047 890.367188,615.153809 
	C885.668274,626.716858 887.281982,641.487305 896.591064,646.141418 
	C899.164551,642.782898 901.783203,639.365540 904.161560,636.261658 
	C902.799072,634.235718 901.803406,632.755310 900.203186,630.726440 
M442.576202,946.000000 
	C443.366730,946.154358 444.176849,946.243225 444.944733,946.473206 
	C452.707153,948.797668 452.683929,948.790283 456.988312,942.199768 
	C461.366882,935.495422 465.793213,928.822388 470.842712,921.158081 
	C473.135956,932.370300 475.209930,942.510559 477.290253,952.681763 
	C482.071289,953.540222 486.785736,954.386719 491.619293,955.254578 
	C488.669739,940.695923 485.887054,926.686890 482.956696,912.708740 
	C482.302521,909.588257 482.257355,905.821655 477.709747,905.270386 
	C475.143188,904.959229 472.582703,904.018677 470.057922,904.142700 
	C468.331146,904.227600 466.013397,905.208130 465.083374,906.560730 
	C456.881866,918.488953 448.898804,930.568542 440.999115,942.699829 
	C440.569183,943.359985 441.458160,944.879028 442.576202,946.000000 
M765.025574,231.713135 
	C760.005920,236.017761 763.678589,238.750977 766.899292,241.305923 
	C762.940430,246.399170 758.895996,251.107666 755.463562,256.226501 
	C753.735840,258.803223 752.378662,262.067108 752.140564,265.120575 
	C751.463013,273.810120 759.877625,282.087402 770.742737,283.872528 
	C771.808044,280.446686 772.884033,276.986511 773.934021,273.609833 
	C772.171448,272.850830 770.322083,272.459930 769.019592,271.398132 
	C767.083679,269.819824 764.553406,268.118378 766.993347,264.949646 
	C770.814209,259.987671 774.555481,254.964401 778.369385,249.915466 
	C781.568176,252.183731 784.416016,254.203171 787.440125,256.347595 
	C789.849121,253.368301 791.988892,250.721939 794.153137,248.045303 
	C793.760315,247.489899 793.548462,247.025726 793.196350,246.726746 
	C792.459045,246.100662 791.663391,245.538986 790.864502,244.990417 
	C785.301758,241.170959 785.274658,241.156815 789.040649,235.757324 
	C789.962219,234.436127 791.104919,233.269196 792.269287,231.884583 
	C788.339417,229.033539 784.626526,226.339935 780.702515,223.493149 
	C778.088318,226.579376 775.817932,229.259735 773.695923,231.764877 
	C771.782593,230.406769 770.121338,229.227554 768.280396,227.920822 
	C767.188904,229.116379 766.290527,230.100388 765.025574,231.713135 
M383.508545,885.993530 
	C376.236511,901.996704 368.964478,917.999939 361.511383,934.401550 
	C366.021515,936.408813 370.186890,938.262634 374.560913,940.209351 
	C383.453247,920.740662 392.239502,901.504272 401.145905,882.004761 
	C399.347412,881.352173 398.141510,880.978333 396.986542,880.485352 
	C388.010468,876.653320 388.013458,876.646301 383.508545,885.993530 
M150.563293,638.000061 
	C164.945633,635.317871 179.327957,632.635681 194.285309,629.846252 
	C193.388153,624.841736 192.544281,620.134399 191.677933,615.301758 
	C172.101135,618.995972 152.566406,622.682190 132.580353,626.453674 
	C133.512497,631.484619 134.388275,636.211365 135.300980,641.137329 
	C140.288284,640.049927 144.983673,639.026123 150.563293,638.000061 
M877.379089,763.033630 
	C866.062622,755.731995 854.746155,748.430298 843.187988,740.972656 
	C840.675049,745.133850 838.216125,749.205627 835.853516,753.117920 
	C842.350342,757.565369 848.435852,761.786011 854.578857,765.921204 
	C860.611511,769.982056 861.648315,773.913879 858.212158,780.302917 
	C857.474487,781.674438 856.683350,783.017212 855.940735,784.330933 
	C858.961731,786.330322 861.902283,788.028137 864.545593,790.104492 
	C866.657532,791.763550 867.819580,791.200928 868.478516,788.998535 
	C869.701660,784.910522 870.746460,780.769104 871.854675,776.689880 
	C875.769897,778.145203 878.631775,775.411682 881.859863,766.299622 
	C880.588440,765.375549 879.285461,764.428528 877.379089,763.033630 
M220.531525,776.019470 
	C219.398621,774.695068 218.265717,773.370728 216.942154,771.823425 
	C213.528519,774.406555 210.108261,776.994690 205.854767,780.213379 
	C210.448944,783.698669 214.376144,786.677979 218.336777,789.682678 
	C216.460876,792.664978 216.460876,792.664978 224.523956,802.787231 
	C237.000351,793.721375 249.475311,784.656555 262.046600,775.521729 
	C259.141571,771.483521 256.426392,767.709167 253.591583,763.768555 
	C247.414993,768.266296 241.470795,772.437012 235.703827,776.839905 
	C230.215500,781.030151 225.981476,781.067627 220.531525,776.019470 
M286.998352,246.511200 
	C284.387360,248.479797 284.742188,250.068420 286.878235,252.533325 
	C291.531403,257.902802 295.648590,263.734375 300.038269,269.335236 
	C304.214203,274.663391 308.458130,279.938293 312.980591,285.624359 
	C316.915527,282.483124 320.508789,279.614594 324.255188,276.623840 
	C320.484741,271.832520 317.032227,267.547974 313.691345,263.178101 
	C307.020386,254.452499 303.101379,250.809250 314.051819,241.433014 
	C314.378632,241.153168 314.576965,240.723221 314.733734,240.504669 
	C313.085510,238.129562 311.485718,235.907867 309.974762,233.627335 
	C307.720459,230.224930 305.320648,230.154892 303.088531,233.481155 
	C301.146851,236.374664 299.517059,239.477463 298.626007,240.994904 
	C295.260223,242.081253 293.086304,242.606796 291.073120,243.496140 
	C289.783752,244.065689 288.731598,245.172104 286.998352,246.511200 
M939.995178,598.399292 
	C939.272095,594.011230 938.548950,589.623169 937.815125,585.170044 
	C938.428284,585.074646 939.655151,584.883850 940.690186,584.722900 
	C940.690186,579.953064 940.690186,575.536926 940.690186,571.151611 
	C925.373901,570.084290 910.366333,569.038452 895.362122,567.992859 
	C894.882996,572.907471 894.449646,577.352844 894.022644,581.733032 
	C897.315552,582.209778 900.033020,582.772095 902.775879,582.954956 
	C905.761475,583.153931 908.786621,582.798950 911.766479,583.036804 
	C923.395874,583.965088 925.279236,585.831665 927.098083,597.113831 
	C927.270630,598.184021 928.753967,599.817444 929.680176,599.853088 
	C933.087097,599.984131 936.515747,599.552002 939.995178,598.399292 
M184.504471,415.000031 
	C193.450989,418.764954 202.397491,422.529846 211.510376,426.364807 
	C213.519684,421.792786 215.310867,417.717102 217.299286,413.192596 
	C202.882584,407.134857 188.656235,401.157104 174.320679,395.133453 
	C172.417664,399.532104 170.582855,403.773102 168.673477,408.186432 
	C173.872650,410.530396 178.792709,412.748535 184.504471,415.000031 
M584.002563,191.696457 
	C583.605896,195.918991 583.209229,200.141541 582.767212,204.846359 
	C587.600647,205.630829 592.100403,206.361145 596.531738,207.080338 
	C598.675110,191.512955 600.748901,176.450745 602.846375,161.216507 
	C598.398804,160.474991 594.118164,159.761307 588.953247,158.900208 
	C588.303101,163.278931 587.673523,167.670319 586.994812,172.054108 
	C586.027649,178.302017 585.024414,184.544357 584.002563,191.696457 
M832.734314,810.799988 
	C834.832703,804.674988 829.154785,799.538757 825.346313,799.005676 
	C821.179626,798.422424 816.244202,801.642639 815.113953,805.670166 
	C814.054932,809.444275 816.974976,814.147461 821.621826,816.151917 
	C825.903442,817.998779 829.034485,816.567566 832.734314,810.799988 
M211.965500,740.555176 
	C215.549591,737.186340 216.427689,733.000671 213.443054,729.271912 
	C211.728012,727.129272 208.305191,725.337219 205.591644,725.250549 
	C201.613052,725.123413 197.878204,727.539856 197.644577,732.024353 
	C197.501495,734.771057 198.288239,738.412292 200.091721,740.224487 
	C203.123642,743.271362 207.358627,744.153137 211.965500,740.555176 
M361.032135,227.259888 
	C360.222900,221.055893 354.673859,218.091232 348.789520,220.719131 
	C344.761505,222.518005 342.836578,226.925507 344.134430,231.377945 
	C345.308533,235.405884 349.402374,237.555771 354.838745,236.999374 
	C358.434967,236.631317 361.130463,232.925507 361.032135,227.259888 
M602.107056,140.024048 
	C594.804321,137.993576 589.811401,140.065231 589.020996,145.530914 
	C588.358948,150.109787 590.486572,152.788620 594.772095,154.371872 
	C599.181641,156.000961 602.849060,154.820221 605.030090,151.191528 
	C607.316223,147.388016 606.772583,143.321732 602.107056,140.024048 
M152.940659,392.528717 
	C152.356430,393.837982 151.022079,395.371033 151.332977,396.413330 
	C152.163422,399.197357 153.051300,402.761047 155.148209,404.135651 
	C157.060379,405.389130 161.039597,405.044617 163.304382,403.863678 
	C167.348907,401.754700 168.417404,393.300385 165.681381,390.315979 
	C162.343964,386.675568 157.265900,387.246887 152.940659,392.528717 
z"/>
<path fill="#FFFFFF" opacity="1.000000" stroke="none" 
	d="
M793.396729,883.779663 
	C782.223633,876.359619 771.376831,869.128845 760.530029,861.898071 
	C760.252197,862.092285 759.974304,862.286438 759.696411,862.480652 
	C764.387207,874.995422 769.078003,887.510193 774.042603,900.755432 
	C770.722229,903.522095 767.063538,906.570740 762.946289,910.001343 
	C755.721863,890.684692 748.967529,872.260498 741.851440,853.977173 
	C740.741028,851.124268 741.380066,849.690735 743.352783,848.159485 
	C746.537720,845.687256 749.762207,843.265991 752.836914,840.924622 
	C763.860107,848.110962 774.624451,855.128479 786.559570,862.909363 
	C782.896790,852.774109 779.887634,843.747498 776.378906,834.919495 
	C772.181152,824.357910 772.005920,824.445312 781.511169,817.829834 
	C782.590942,817.078369 783.485352,816.060608 784.590027,815.052856 
	C802.197571,826.487061 819.808655,837.923584 837.908142,849.677307 
	C833.875305,852.903015 830.720032,855.681213 827.264893,858.015503 
	C826.378967,858.613953 824.253113,858.265686 823.194214,857.582092 
	C812.655701,850.779236 802.221680,843.814697 790.621399,836.144226 
	C795.781616,850.164490 800.527222,863.058289 805.429932,876.378906 
	C801.417786,878.980164 797.570435,881.474548 793.396729,883.779663 
z"/>
<path fill="#FFFFFF" opacity="1.000000" stroke="none" 
	d="
M610.998535,946.186646 
	C611.609497,952.944031 612.219116,959.237366 612.831116,965.555481 
	C603.104309,966.706238 593.438599,968.456970 583.718750,968.842285 
	C572.189026,969.299255 561.364929,966.876953 554.522278,956.047607 
	C543.270081,938.239746 550.245483,914.976624 572.929321,910.116699 
	C580.994995,908.388611 589.349060,908.012207 597.568359,906.993347 
	C600.469971,906.633606 603.362183,906.197937 606.571533,905.753601 
	C607.399475,913.934387 608.153992,921.846436 609.015991,929.746643 
	C609.597900,935.080566 610.331482,940.397888 610.998535,946.186646 
M573.217834,954.745056 
	C581.129211,956.867676 589.004517,956.421692 596.928772,954.668945 
	C595.648193,942.995300 594.396545,931.585815 593.085510,919.634949 
	C588.907288,920.142029 585.380188,920.656677 581.835693,920.981812 
	C574.745728,921.632080 567.198120,924.540710 564.445618,935.003418 
	C562.653259,941.816406 566.030396,949.810303 573.217834,954.745056 
z"/>
<path fill="#FFFFFF" opacity="1.000000" stroke="none" 
	d="
M199.772293,471.720917 
	C201.887421,467.933441 204.198547,464.571777 205.514099,460.857513 
	C208.279190,453.050690 206.069489,448.727905 197.896240,445.172791 
	C199.721268,451.802948 199.388748,458.036682 196.461929,464.107971 
	C193.535126,470.179260 188.794754,474.104980 182.445862,475.764038 
	C171.448929,478.637726 160.710953,473.297913 156.398041,464.819763 
	C151.782333,455.746368 153.094803,442.159424 163.671295,434.536377 
	C159.439560,433.005402 159.560928,429.562897 164.195633,420.388702 
	C176.423355,423.929565 188.697678,427.355896 200.891769,431.047333 
	C216.261520,435.700195 221.708496,445.865601 217.649811,461.181091 
	C215.815964,468.101135 211.269424,474.346680 207.658813,480.731598 
	C206.000824,483.663574 203.756927,483.732452 201.357895,480.953522 
	C199.649979,478.975159 197.396301,477.467987 195.240799,475.626343 
	C197.147995,474.003326 198.332657,472.995178 199.772293,471.720917 
M182.444305,440.925354 
	C177.979675,437.997925 173.852188,439.152771 170.245361,442.360413 
	C166.957687,445.284149 165.937927,452.410614 167.845566,456.392029 
	C170.065598,461.025391 174.158340,462.205109 178.783081,461.960205 
	C184.038757,461.681885 186.467712,457.585449 187.651672,453.466492 
	C189.011978,448.734039 187.862350,444.044678 182.444305,440.925354 
z"/>
<path fill="#FFFFFF" opacity="1.000000" stroke="none" 
	d="
M865.916199,364.427704 
	C863.946655,363.600769 862.266479,363.079376 859.756958,362.300629 
	C857.111084,368.922760 854.310364,375.932251 851.138916,383.869873 
	C848.494080,380.051208 846.341797,376.578674 843.822937,373.396240 
	C840.428711,369.107697 844.976013,366.074585 845.309509,362.390961 
	C845.447510,360.866699 846.130249,359.186462 847.075195,357.975098 
	C851.799072,351.920044 846.376282,348.196381 843.866211,343.881348 
	C843.589844,343.406311 841.539551,343.398956 840.747375,343.884735 
	C837.056702,346.147827 833.519104,348.660614 829.478638,351.386383 
	C826.848633,347.593506 824.248718,343.941833 821.810608,340.185150 
	C821.550415,339.784180 822.007202,338.430420 822.514954,338.089172 
	C838.652161,327.241669 854.836792,316.464813 871.129211,305.600586 
	C876.499512,313.732635 881.611816,321.503235 886.754456,329.253723 
	C892.485535,337.890808 892.934143,348.808624 886.899536,356.885529 
	C881.878784,363.605560 874.569946,365.975281 865.916199,364.427704 
M859.032288,331.461121 
	C857.105835,332.846771 855.179382,334.232422 852.824158,335.926514 
	C856.155640,340.056244 859.465759,344.245636 862.871887,348.355347 
	C865.814880,351.906128 869.690796,351.643524 872.869385,349.416504 
	C876.157959,347.112335 879.658813,343.873779 877.516357,339.138611 
	C875.255310,334.141205 872.252625,329.479340 869.592102,324.703552 
	C865.861511,327.075714 862.750732,329.053772 859.032288,331.461121 
z"/>
<path fill="#FFFFFF" opacity="1.000000" stroke="none" 
	d="
M290.488281,869.822021 
	C279.991364,864.377747 275.172394,855.906067 277.166748,844.747925 
	C279.042175,834.255066 285.891052,827.361816 296.215179,824.294678 
	C305.604767,821.505188 318.556335,828.460266 322.032410,837.992126 
	C322.247437,838.581726 322.687317,839.089294 323.368713,840.198486 
	C327.552704,835.218872 331.547638,830.464233 335.808380,825.393250 
	C339.725037,828.516724 343.259094,831.335083 346.989410,834.309937 
	C333.759125,850.681641 320.616608,866.944824 306.946930,883.860229 
	C304.520386,878.832764 296.036499,878.959961 298.026306,871.372192 
	C295.917786,870.964905 293.382874,870.475220 290.488281,869.822021 
M304.774780,860.754639 
	C307.520447,858.173157 311.160431,856.035889 312.731964,852.871338 
	C314.014191,850.289368 313.881134,845.891663 312.471497,843.358704 
	C310.576355,839.953247 307.211456,837.025574 302.293610,837.881775 
	C295.286591,839.101685 290.335602,845.134888 291.000854,851.925842 
	C291.531982,857.347412 296.797638,861.019775 304.774780,860.754639 
z"/>
<path fill="#FFFFFF" opacity="1.000000" stroke="none" 
	d="
M692.659546,946.733582 
	C688.022644,948.962769 685.971252,947.407776 684.930542,942.921753 
	C683.902100,938.488831 682.155273,934.222656 680.675537,929.737610 
	C667.064575,939.339478 655.592163,940.700073 647.479065,933.955933 
	C638.351196,926.368225 635.279907,913.124023 640.341187,903.175537 
	C645.255493,893.515869 655.785645,889.005920 667.314697,891.514771 
	C667.801697,883.735535 675.577698,887.252136 679.155945,882.492981 
	C682.073730,890.763184 684.546204,897.760315 687.011169,904.760132 
	C690.998474,916.083191 694.844421,927.458801 699.036316,938.705566 
	C700.593811,942.884216 699.618103,945.078125 695.338989,945.943237 
	C694.552612,946.102112 693.777344,946.315857 692.659546,946.733582 
M659.818787,924.982666 
	C664.725159,927.668701 668.878601,925.076416 672.064514,922.142395 
	C675.627502,918.861023 676.018127,914.062073 673.799866,909.583801 
	C671.884033,905.716248 669.325439,902.323181 664.448975,902.008667 
	C658.486023,901.624146 654.200745,904.561401 652.260193,910.282166 
	C650.880005,914.350952 654.482361,921.903687 659.818787,924.982666 
z"/>
<path fill="#FFFFFF" opacity="1.000000" stroke="none" 
	d="
M139.000122,566.830566 
	C139.940262,568.210083 140.797516,569.741821 141.836258,569.876770 
	C144.615509,570.237854 147.472580,569.999756 151.301544,569.999756 
	C150.865860,565.872375 150.391541,561.908142 150.052704,557.932312 
	C149.897659,556.113159 150.001678,554.271179 150.001251,552.439575 
	C149.998611,541.379211 149.999878,541.379211 161.889526,542.305847 
	C161.889526,551.340820 161.889526,560.415771 161.889526,569.742798 
	C166.340500,569.742798 170.410782,569.742798 174.877945,569.742798 
	C174.877945,558.997375 174.877945,548.258606 174.877945,537.735840 
	C175.530518,537.354919 175.802292,537.055969 176.067032,537.062073 
	C186.827301,537.310547 187.091614,534.167969 187.014267,547.715027 
	C186.946060,559.664551 187.000000,571.614807 187.000000,584.280640 
	C166.985458,584.280640 147.312424,584.280640 126.818558,584.280640 
	C126.818558,569.732361 126.818558,554.609253 126.818558,539.234741 
	C130.014511,539.234741 133.763412,539.234741 139.000000,539.234741 
	C139.000000,548.317932 139.000000,557.331970 139.000122,566.830566 
z"/>
<path fill="#FFFFFF" opacity="1.000000" stroke="none" 
	d="
M395.271301,223.672302 
	C389.381226,207.714279 383.722961,192.088272 378.084106,176.455276 
	C377.986115,176.183548 378.122162,175.827393 378.261536,174.183548 
	C389.909576,170.876495 401.835114,166.163925 414.184113,164.375290 
	C425.469727,162.740692 432.992523,169.825211 435.654144,181.668335 
	C437.619110,190.411530 434.658142,198.603088 424.370636,204.078430 
	C418.894775,206.992828 413.045105,209.204880 406.960785,211.913528 
	C408.563934,216.479141 410.291382,221.398758 412.163696,226.730865 
	C407.628693,228.414017 403.155457,230.074249 398.299469,231.876526 
	C397.363922,229.240753 396.434479,226.622208 395.271301,223.672302 
M403.579407,178.998444 
	C401.078674,179.929932 398.577972,180.861420 396.022034,181.813477 
	C398.372711,188.285339 400.508789,194.166428 402.707581,200.220215 
	C405.160583,199.110428 407.328796,198.096497 409.524292,197.145493 
	C411.716400,196.195938 414.012054,195.457275 416.128510,194.366547 
	C421.764771,191.461868 422.895508,184.751694 418.621918,180.118607 
	C414.245178,175.373749 409.371552,176.588806 403.579407,178.998444 
z"/>
<path fill="#FFFFFF" opacity="1.000000" stroke="none" 
	d="
M192.246338,693.979614 
	C187.955734,693.309082 184.145767,692.471619 180.290359,692.039368 
	C170.395126,690.930176 160.474930,690.043640 150.579575,688.935425 
	C149.556900,688.820923 148.117493,688.034058 147.755920,687.183289 
	C146.319016,683.802246 145.113159,680.306396 144.100540,676.773193 
	C143.844208,675.878845 144.278458,674.302490 144.970703,673.693420 
	C154.550232,665.265076 164.275787,657.002869 173.866089,648.586548 
	C178.574646,644.454407 183.054901,640.063049 187.687042,635.842285 
	C189.208847,634.455566 190.883514,633.236633 192.951813,631.566772 
	C194.672516,636.627441 196.195480,641.106567 197.833740,645.924744 
	C194.319229,649.016296 190.764359,652.143372 187.279846,655.208557 
	C189.556107,662.238953 192.211365,668.952759 193.810196,675.909363 
	C194.847824,680.424316 197.075226,681.462646 201.054092,681.026733 
	C202.534912,680.864502 204.330582,680.494812 205.482147,681.128845 
	C207.219025,682.085083 209.070969,683.579712 209.880524,685.310303 
	C211.357819,688.468140 212.107056,691.966614 213.365906,695.979309 
	C206.162582,695.288269 199.434433,694.642761 192.246338,693.979614 
M168.985992,670.520874 
	C166.530594,672.638855 164.075211,674.756836 160.767639,677.609863 
	C169.027039,678.210510 175.805054,678.703369 182.836807,679.214661 
	C181.010727,673.633667 179.320251,668.467163 177.587860,663.172485 
	C174.698349,665.611450 172.097351,667.806885 168.985992,670.520874 
z"/>
<path fill="#FFFFFF" opacity="1.000000" stroke="none" 
	d="
M902.906738,652.018555 
	C915.740356,656.325867 928.096191,660.829163 940.628479,664.771484 
	C944.342224,665.939758 944.508301,667.361389 943.296021,670.385437 
	C942.229614,673.045349 941.563660,675.865906 940.417908,679.603882 
	C934.247803,677.729065 928.038757,675.842468 920.789551,673.639771 
	C920.789551,678.247803 921.754517,682.727417 920.603821,686.574280 
	C917.487366,696.992920 910.203613,703.843750 895.885437,699.998901 
	C894.647339,699.666443 893.391602,699.384094 892.179138,698.974609 
	C884.610474,696.418518 877.051819,693.832886 869.189758,691.154724 
	C870.664246,686.619080 872.061096,682.322266 873.517334,677.842712 
	C881.755005,680.419495 889.821960,683.023438 897.940430,685.455322 
	C903.782104,687.205139 906.721924,685.882935 909.036499,680.824097 
	C911.143738,676.218384 910.086731,671.200562 905.233887,668.958313 
	C898.292908,665.751282 890.861023,663.607300 883.640869,661.003601 
	C882.450745,660.574463 881.271301,660.115906 879.666077,659.512817 
	C881.258057,654.850037 882.784180,650.380249 884.307922,645.917297 
	C890.659302,648.041382 896.577881,650.020691 902.906738,652.018555 
z"/>
<path fill="#FFFFFF" opacity="1.000000" stroke="none" 
	d="
M814.302734,302.800507 
	C807.057983,295.576752 800.080322,288.597931 792.722839,281.239227 
	C790.791687,292.529236 796.053955,299.287231 806.825684,300.305542 
	C806.825684,304.062439 806.825684,307.835876 806.825684,311.579407 
	C792.948059,314.034271 779.489807,297.126129 778.749390,286.792358 
	C777.530212,269.777802 792.457825,260.161499 803.920349,260.991302 
	C814.847351,261.782288 825.178162,271.035370 827.170105,281.666382 
	C828.785156,290.285980 825.119995,296.622833 820.495300,302.852295 
	C818.997498,304.869904 816.641357,306.110291 814.302734,302.800507 
M812.524475,288.014923 
	C813.326660,287.754913 814.597290,287.724182 814.855103,287.197632 
	C816.536011,283.764160 815.041931,278.379822 811.265137,275.906464 
	C806.945374,273.077515 804.217712,270.973999 799.005981,275.558502 
	C803.354553,279.556610 807.681641,283.534973 812.524475,288.014923 
z"/>
<path fill="#FFFFFF" opacity="1.000000" stroke="none" 
	d="
M889.011841,496.639557 
	C887.630249,489.098938 887.695740,482.380951 890.790771,475.376648 
	C896.787048,461.806396 920.107666,457.154419 930.913086,472.768799 
	C937.386719,482.123596 937.988892,493.648285 930.875305,503.378815 
	C926.903564,508.811554 920.822021,510.795197 914.542236,511.789368 
	C913.589417,511.940186 911.440735,509.443207 911.124023,507.907227 
	C909.149658,498.330505 907.539124,488.678711 905.776917,478.879120 
	C899.149109,482.988586 897.982361,491.146973 902.641785,498.150879 
	C906.068237,503.301422 905.805908,506.506012 901.171875,510.116272 
	C900.402771,510.715454 897.761902,510.306671 897.164429,509.495636 
	C894.231812,505.514648 891.697266,501.240387 889.011841,496.639557 
M917.925964,494.451782 
	C918.081848,495.304596 918.237732,496.157410 918.432068,497.220490 
	C924.471680,492.886963 926.107788,488.917175 923.803101,483.614166 
	C922.074402,479.636444 919.364380,476.600037 914.470764,477.135254 
	C915.458374,482.904633 916.395996,488.382263 917.925964,494.451782 
z"/>
<path fill="#FFFFFF" opacity="1.000000" stroke="none" 
	d="
M723.592407,913.773926 
	C709.352234,920.070312 694.656677,911.098450 692.022522,898.639832 
	C701.650452,893.581055 711.300659,888.510498 720.957092,883.436768 
	C715.715637,876.197449 704.846313,879.922180 699.519714,891.056030 
	C697.852722,890.410034 696.143372,889.683594 694.391663,889.080200 
	C688.074890,886.904541 687.324219,885.566528 691.280151,880.463806 
	C699.669861,869.642151 712.079651,865.161133 725.201782,869.167786 
	C733.565186,871.721375 740.732483,882.776428 739.901917,891.795898 
	C738.981873,901.787598 734.337524,909.377563 723.592407,913.773926 
M726.997681,894.459473 
	C726.669434,893.325195 726.341248,892.190857 725.952759,890.848450 
	C719.703674,894.189209 713.943481,897.268494 706.585083,901.202271 
	C710.611389,902.386597 713.333313,903.781616 716.100403,903.877686 
	C721.899658,904.079041 724.867554,900.051880 726.997681,894.459473 
z"/>
<path fill="#FFFFFF" opacity="1.000000" stroke="none" 
	d="
M292.306335,278.196106 
	C285.327057,285.074463 278.615540,291.708649 271.838043,298.408081 
	C277.674530,302.601318 285.256104,297.516602 287.986755,293.104980 
	C288.234802,292.704193 288.430237,292.270538 288.644806,291.849457 
	C292.525970,284.233521 292.525818,284.233429 301.719818,285.425964 
	C304.102539,295.641388 290.560211,309.454895 280.327118,312.247192 
	C264.782318,316.489014 249.744110,301.803955 251.022797,287.935516 
	C251.961823,277.751099 257.858673,270.051300 266.550476,266.079102 
	C276.334869,261.607605 285.009674,264.167755 292.829926,271.216034 
	C295.837585,273.926758 295.290009,275.806641 292.306335,278.196106 
M270.501953,286.998779 
	C273.447723,283.997375 276.393494,280.995972 279.473389,277.857910 
	C273.194122,274.736145 270.228485,275.371002 265.508087,281.043365 
	C262.727997,284.384125 261.743805,288.118713 266.033905,292.557434 
	C267.362549,290.863068 268.681885,289.180542 270.501953,286.998779 
z"/>
<path fill="#FFFFFF" opacity="1.000000" stroke="none" 
	d="
M888.432373,418.761658 
	C883.419312,408.721252 878.747803,398.885803 873.990295,388.869232 
	C866.964783,396.404938 871.692627,407.588043 881.128479,411.733856 
	C880.184692,413.916595 878.752563,416.026886 878.388855,418.307526 
	C877.494690,423.914459 874.199158,421.516998 871.867432,420.233521 
	C865.083984,416.499664 861.875610,409.957855 859.484802,402.989777 
	C854.665955,388.944702 863.722473,376.195221 874.431396,372.701660 
	C892.256104,366.886780 906.358337,382.741455 906.248108,395.819214 
	C906.154968,406.874817 901.259338,413.687042 892.081360,418.380066 
	C891.128174,418.867462 889.883423,418.784790 888.432373,418.761658 
M893.989746,400.110962 
	C896.147705,394.515778 894.904663,390.115387 890.264893,386.680267 
	C887.776001,384.837646 885.353333,382.866333 882.250183,385.213379 
	C885.172302,391.462921 887.904419,397.306213 890.782288,403.461151 
	C892.003906,402.360321 892.842346,401.604797 893.989746,400.110962 
z"/>
<path fill="#FFFFFF" opacity="1.000000" stroke="none" 
	d="
M265.272339,786.686523 
	C274.343964,786.667175 287.067383,800.451660 287.971497,811.429871 
	C288.943420,823.231567 281.527893,833.403625 269.768341,836.742554 
	C259.775208,839.579956 247.288376,833.460144 242.069183,823.394531 
	C236.726700,813.091125 237.895752,801.232483 250.585266,792.027405 
	C258.095978,800.235962 265.626801,808.466492 273.187714,816.729919 
	C278.055939,808.598328 271.524261,799.036316 259.826996,797.506714 
	C260.298798,793.839783 260.771088,790.168945 261.301849,786.043640 
	C262.497223,786.167542 263.716034,786.293884 265.272339,786.686523 
M253.826721,809.296936 
	C253.211578,809.544373 252.290863,809.615173 252.029587,810.067139 
	C249.915527,813.724060 251.165924,818.939392 254.857635,822.357544 
	C258.217896,825.468750 262.168488,825.803284 267.159729,823.032166 
	C262.800018,818.564392 258.561157,814.220520 253.826721,809.296936 
z"/>
<path fill="#FFFFFF" opacity="1.000000" stroke="none" 
	d="
M231.476196,305.185547 
	C241.546982,300.596161 252.931656,304.168640 258.816254,311.429260 
	C252.096802,320.293152 245.341354,329.204529 238.353516,338.422485 
	C247.631271,339.766968 255.339035,333.425293 255.697388,323.871368 
	C255.807800,320.927490 256.532410,321.014832 258.439148,321.004059 
	C261.087036,320.989105 263.735077,321.000305 266.348511,321.000305 
	C268.907990,333.588715 258.870789,348.759033 245.438156,351.729034 
	C233.652130,354.334991 221.193420,348.025635 217.755646,335.188782 
	C214.962067,324.757355 217.908615,312.517670 231.476196,305.185547 
M241.406769,315.902130 
	C237.507965,314.632477 232.376175,316.805450 230.061081,320.706268 
	C227.688385,324.704163 228.115601,329.142853 231.555069,332.340668 
	C235.584473,327.086731 239.586029,321.869080 243.587570,316.651459 
	C243.112823,316.432098 242.638092,316.212738 241.406769,315.902130 
z"/>
<path fill="#FFFFFF" opacity="1.000000" stroke="none" 
	d="
M878.599609,715.627197 
	C870.137207,715.039124 862.229431,724.006165 864.276611,732.280640 
	C864.996643,735.191040 864.442688,735.818542 861.943176,736.003601 
	C861.455444,736.039734 860.952820,736.056030 860.487793,736.188904 
	C852.967834,738.336487 852.186646,737.393677 852.733215,729.499023 
	C853.455688,719.063782 857.641968,710.671448 866.488586,705.155701 
	C874.845825,699.945129 883.482422,700.786804 891.625366,705.994385 
	C898.341675,710.289551 901.556335,716.379395 902.161194,724.597351 
	C903.163330,738.213318 890.600708,752.536316 877.135437,750.884399 
	C872.636475,750.332397 868.302917,748.432190 863.120117,746.923035 
	C868.500671,736.084839 873.487671,726.039490 878.599609,715.627197 
M880.961853,731.410339 
	C879.929443,733.375122 878.897095,735.339905 877.824402,737.381409 
	C883.926208,738.498108 887.340881,736.870056 889.510376,732.016174 
	C891.859131,726.761353 891.051025,723.385071 886.531738,719.970886 
	C885.676697,721.698914 884.855896,723.415588 883.983398,725.105530 
	C883.024597,726.962463 882.018127,728.794861 880.961853,731.410339 
z"/>
<path fill="#FFFFFF" opacity="1.000000" stroke="none" 
	d="
M540.810669,947.551392 
	C535.875916,954.017822 529.359924,956.786011 521.886902,958.013794 
	C510.441772,959.894348 496.484283,948.739014 496.016815,937.094177 
	C495.903931,934.282837 496.000061,931.463074 496.000061,928.215027 
	C507.368073,928.843872 518.559387,929.462891 529.800537,930.084717 
	C528.742065,921.279785 518.563782,919.150879 506.774780,925.037598 
	C504.506073,922.396667 502.208771,919.722473 499.782104,916.897705 
	C503.611938,912.238953 508.447845,910.100708 514.248108,910.008911 
	C520.267700,909.913696 526.023376,910.286011 531.840210,912.827087 
	C545.483154,918.786865 548.352356,935.905518 540.810669,947.551392 
M513.835815,938.000000 
	C512.391174,938.000000 510.946564,938.000000 509.416840,938.000000 
	C511.651031,943.842712 515.591736,947.477112 520.069519,946.880432 
	C524.502197,946.289673 528.929810,944.899780 530.068481,938.869873 
	C524.798950,938.570618 519.774170,938.285339 513.835815,938.000000 
z"/>
<path fill="#FFFFFF" opacity="1.000000" stroke="none" 
	d="
M414.230591,890.000000 
	C426.646057,889.264709 436.185852,893.589478 442.414215,903.960815 
	C450.503540,917.431152 439.687073,936.777527 424.764954,938.195190 
	C412.203766,939.388550 399.075104,932.250244 396.552185,921.015442 
	C395.166138,914.843079 395.706024,908.805054 399.229889,902.928406 
	C409.636871,906.385193 419.892578,909.791687 430.148315,913.198242 
	C430.606415,912.918213 431.064545,912.638184 431.522644,912.358154 
	C430.333923,910.058899 429.579224,907.349243 427.870178,905.542114 
	C423.750671,901.186462 417.370178,900.382935 409.644012,903.052551 
	C408.489960,899.527161 407.334412,895.997192 406.178864,892.467163 
	C408.709564,891.644775 411.240265,890.822388 414.230591,890.000000 
M427.413818,921.950867 
	C421.474609,919.840210 415.535400,917.729553 409.452942,915.568054 
	C408.855194,921.486572 411.205536,925.059021 416.279663,926.770264 
	C420.975739,928.354004 425.405212,926.743469 427.413818,921.950867 
z"/>
<path fill="#FFFFFF" opacity="1.000000" stroke="none" 
	d="
M706.014771,234.258759 
	C710.499268,223.029205 715.457581,219.896454 724.301636,223.095200 
	C729.217834,224.873337 733.772400,227.649414 738.496521,229.962387 
	C739.455322,230.431870 740.443359,230.841614 741.544800,231.335770 
	C742.740845,221.778137 737.098999,217.390289 723.600403,216.870316 
	C723.414124,216.608551 723.077515,216.349365 723.069458,216.080307 
	C722.687805,203.371826 722.743164,204.538300 735.366821,207.043106 
	C742.509949,208.460495 747.942505,212.858505 752.676025,218.162140 
	C757.488953,223.554901 757.135803,233.592880 752.239990,241.313049 
	C747.778259,248.348770 743.611938,255.571823 739.325134,262.696045 
	C735.560669,259.988495 729.550110,259.483704 727.484741,253.196335 
	C716.171814,253.092270 706.789368,245.654190 706.014771,234.258759 
M721.376526,240.917419 
	C723.606567,242.125504 725.857239,244.325241 728.061218,244.279404 
	C730.562378,244.227386 733.021790,242.165466 735.499329,240.977341 
	C734.274414,239.438568 733.220825,237.706284 731.770386,236.422226 
	C730.609558,235.394577 729.032288,234.553864 727.520996,234.275574 
	C725.525818,233.908157 722.685425,233.368607 721.559631,234.390991 
	C720.451416,235.397461 721.030701,238.262268 721.376526,240.917419 
z"/>
<path fill="#FFFFFF" opacity="1.000000" stroke="none" 
	d="
M447.002319,203.570847 
	C444.346588,196.084808 446.572205,189.245193 453.355927,186.401443 
	C459.515076,183.819519 466.112396,182.282944 472.568420,180.269333 
	C471.032532,172.595932 458.894470,172.942596 449.320709,182.096390 
	C448.071075,180.426926 446.837280,178.804977 445.631470,177.162476 
	C442.228851,172.527542 442.479004,171.890503 447.459351,168.924576 
	C454.155151,164.937027 461.185455,162.653397 469.102600,162.940689 
	C476.884766,163.223099 483.445618,166.794724 485.536469,174.267242 
	C488.390839,184.468384 490.091583,194.992325 492.425293,206.032761 
	C487.314697,204.823273 482.630707,210.112259 477.489655,205.367828 
	C473.064453,210.136353 466.695953,212.291977 459.686920,211.895905 
	C454.255829,211.588989 449.874023,208.803955 447.002319,203.570847 
M470.094269,199.990829 
	C473.460693,197.671494 476.286072,195.093185 474.348358,189.405807 
	C470.228607,190.594818 465.935883,191.559647 461.907990,193.181976 
	C460.853271,193.606796 460.009033,196.153641 460.195648,197.578262 
	C460.358398,198.820969 461.972412,200.588028 463.188934,200.814545 
	C465.119385,201.173996 467.252960,200.442657 470.094269,199.990829 
z"/>
<path fill="#FFFFFF" opacity="1.000000" stroke="none" 
	d="
M630.354126,214.986084 
	C623.278137,212.997055 616.702759,211.187881 611.868103,205.472000 
	C605.250122,197.647751 604.918091,189.008530 608.440796,180.223953 
	C611.606262,172.330292 620.227905,166.664642 628.185974,166.866150 
	C635.139771,167.042221 641.472534,167.899719 647.522217,171.860336 
	C656.403503,177.674866 659.099915,191.622040 655.292236,200.397842 
	C650.493652,211.457535 641.680176,214.706741 630.354126,214.986084 
M637.905640,200.618484 
	C638.722168,199.791992 639.653625,199.050415 640.337036,198.125534 
	C645.744568,190.807602 642.466187,180.239929 634.439941,179.006058 
	C628.852295,178.147064 624.915100,180.137512 622.350708,185.117752 
	C619.880737,189.914444 620.460266,195.952423 623.703674,199.215515 
	C627.450623,202.985184 631.905518,203.565964 637.905640,200.618484 
z"/>
<path fill="#FFFFFF" opacity="1.000000" stroke="none" 
	d="
M354.290985,906.307617 
	C343.310669,908.347900 330.530579,900.155029 326.596649,892.046387 
	C321.074554,880.664368 324.596924,869.489563 333.275787,862.293640 
	C341.938202,855.111511 356.711456,856.120178 366.726471,865.133057 
	C380.893738,877.882568 374.816925,898.792175 360.280334,904.875000 
	C358.540070,905.603271 356.523773,905.671936 354.290985,906.307617 
M356.442291,891.035278 
	C357.606842,889.116394 358.776978,887.200806 359.934784,885.277893 
	C362.311340,881.330750 361.247894,877.113647 358.542145,874.547668 
	C355.998688,872.135559 351.833374,870.336548 348.346405,870.275330 
	C343.208405,870.185059 338.358276,876.779846 338.000336,882.500854 
	C337.675415,887.693909 340.572632,892.365967 346.258728,893.498657 
	C349.232788,894.091125 352.678467,892.316284 356.442291,891.035278 
z"/>
<path fill="#FFFFFF" opacity="1.000000" stroke="none" 
	d="
M679.310181,180.722748 
	C680.989380,181.429977 682.344421,181.895905 684.024597,182.473648 
	C683.740234,183.752762 683.447510,185.069550 683.154419,186.387726 
	C690.946411,185.335205 698.151733,186.185120 704.330078,191.762527 
	C710.824707,197.625534 711.375000,204.801041 708.779175,212.306427 
	C706.114929,220.009689 702.660217,227.440414 699.526794,234.980164 
	C698.558472,237.310135 697.542419,238.938416 694.414978,237.227905 
	C691.515503,235.642044 688.179749,234.853912 684.505737,233.522293 
	C687.563293,226.192093 690.491577,219.133514 693.451050,212.087997 
	C696.070923,205.850739 695.689758,202.728516 691.830444,199.329224 
	C687.225281,195.272995 680.143311,196.472961 677.522095,202.060043 
	C674.465637,208.574722 671.827576,215.285156 668.972412,221.895279 
	C668.406494,223.205505 667.679321,224.446106 666.906738,225.952393 
	C662.455505,224.137039 658.232483,222.414749 653.848389,220.626785 
	C659.772522,206.233704 665.599670,192.076172 671.506714,177.724716 
	C674.198608,178.716919 676.592346,179.599182 679.310181,180.722748 
z"/>
<path fill="#FFFFFF" opacity="1.000000" stroke="none" 
	d="
M217.231506,387.728088 
	C220.588669,389.692291 223.678314,391.385193 227.047272,393.231140 
	C225.804535,395.255798 224.603531,397.073975 223.546829,398.972473 
	C222.463150,400.919434 221.520630,402.944977 220.103317,405.754883 
	C206.587570,398.305359 193.193481,390.922913 179.274536,383.251160 
	C181.642380,378.926025 183.777283,375.026398 185.991470,370.981934 
	C187.322815,371.853088 188.311310,372.499908 189.327484,373.164825 
	C189.646454,372.610962 189.975449,372.306702 189.926620,372.085968 
	C188.026886,363.494812 191.951996,357.116791 197.889709,351.654633 
	C203.376892,346.606873 209.893585,346.755035 216.058136,349.689819 
	C225.167831,354.026703 233.943130,359.065979 243.163437,363.967010 
	C240.797729,368.227234 238.663635,372.070374 236.169052,376.562683 
	C230.349136,373.466888 224.583542,370.425751 218.845779,367.332977 
	C217.011108,366.344025 215.306763,365.104767 213.444870,364.176392 
	C208.122833,361.522644 204.658478,362.515289 201.965042,367.333893 
	C199.235413,372.217255 200.350677,378.415405 204.645798,380.914154 
	C208.661469,383.250366 212.850983,385.287811 217.231506,387.728088 
z"/>
<path fill="#FFFFFF" opacity="1.000000" stroke="none" 
	d="
M926.785034,524.415527 
	C926.035767,523.483093 925.478333,522.890991 924.467957,521.817871 
	C927.981567,519.805786 931.226440,517.947571 935.525818,515.485535 
	C937.279358,520.197754 939.722534,524.498291 940.390991,529.058899 
	C941.565063,537.069397 943.319519,545.723145 936.913574,552.443542 
	C934.136841,555.356567 930.004517,558.384460 926.263367,558.700439 
	C916.104858,559.558350 905.826355,558.994812 895.298767,558.994812 
	C895.298767,555.732300 895.298767,551.646179 895.298767,547.222290 
	C896.281494,547.091858 897.437988,546.938354 898.745544,546.764832 
	C893.339783,540.279785 892.187744,529.214905 895.908569,522.386108 
	C899.308105,516.146851 905.059387,515.313843 911.118286,516.107361 
	C915.884033,516.731567 919.020569,520.101501 919.925354,524.758789 
	C921.193176,531.284973 921.903137,537.919556 922.848511,544.485107 
	C929.801392,543.190308 932.068665,536.987000 928.332703,527.826233 
	C927.910339,526.790771 927.430176,525.778809 926.785034,524.415527 
M910.044556,545.557617 
	C912.951050,546.098083 914.336914,544.898621 913.983093,541.954407 
	C913.634277,539.051514 913.534363,536.026733 912.565979,533.327881 
	C912.059570,531.916626 909.998657,530.373840 908.498169,530.213196 
	C907.148376,530.068665 904.900330,531.384277 904.274109,532.658203 
	C902.036560,537.210327 904.521790,542.695801 910.044556,545.557617 
z"/>
<path fill="#FFFFFF" opacity="1.000000" stroke="none" 
	d="
M168.354645,515.986694 
	C175.430344,516.754272 182.066605,517.510254 188.774033,518.274353 
	C188.099091,522.764160 187.436035,527.174927 186.665817,532.298462 
	C179.228134,531.444885 171.812042,530.662354 164.415680,529.724243 
	C157.974716,528.907349 151.579239,527.541626 145.118790,527.139465 
	C141.223938,526.896973 140.621140,525.147339 141.041382,522.094116 
	C141.417603,519.360718 141.951019,516.648865 142.510117,513.370300 
	C143.267441,513.193054 144.581711,512.885437 145.988800,512.556152 
	C143.380768,506.034607 143.040527,499.415955 145.109528,492.889465 
	C147.336639,485.864136 153.189621,481.647888 160.606262,482.088531 
	C171.200623,482.717987 181.758896,483.954681 192.885727,484.983185 
	C192.572220,489.106262 192.497131,493.120605 191.792252,497.021179 
	C191.635818,497.886780 189.207947,498.992554 187.911194,498.891693 
	C181.414291,498.386353 174.888046,497.837341 168.483368,496.685242 
	C162.028427,495.524139 157.308929,497.143188 156.086258,501.796295 
	C154.380722,508.287048 157.516708,513.372070 164.207672,514.988586 
	C165.450424,515.288818 166.679688,515.644775 168.354645,515.986694 
z"/>
<path fill="#FFFFFF" opacity="1.000000" stroke="none" 
	d="
M557.552917,167.005768 
	C555.396179,168.043320 553.656433,169.075836 551.916687,170.108337 
	C551.886597,170.672501 551.856567,171.236664 551.826538,171.800827 
	C556.649353,173.201019 561.426941,174.789520 566.304810,175.960541 
	C575.297180,178.119354 579.198242,182.219788 579.000000,189.774933 
	C578.862427,195.017517 575.004456,200.068604 569.451050,201.983429 
	C557.823853,205.992538 546.990784,203.229294 535.909058,198.082718 
	C537.806396,194.433746 539.518433,191.141052 541.076721,188.144043 
	C546.107849,189.745667 550.624756,191.262589 555.196289,192.591187 
	C556.584351,192.994598 558.286072,193.339432 559.555603,192.892136 
	C561.497253,192.208008 563.188354,190.813049 564.985840,189.719849 
	C563.334778,188.480286 561.853271,186.729126 559.995483,186.113144 
	C556.658752,185.006851 553.056396,184.734100 549.636169,183.840775 
	C542.849243,182.068054 539.078979,177.874008 539.000000,172.327148 
	C538.877136,163.701447 541.694275,159.319977 549.675476,157.192535 
	C559.786865,154.497314 569.508240,155.982407 578.996765,161.047806 
	C577.225830,164.511566 575.589233,167.712463 574.313904,170.206924 
	C568.492493,169.064941 563.231201,168.032837 557.552917,167.005768 
z"/>
<path fill="#FFFFFF" opacity="1.000000" stroke="none" 
	d="
M533.818115,196.524261 
	C528.891968,201.392136 523.389648,204.228607 516.677063,203.974075 
	C511.305237,203.770386 505.883759,203.716873 500.590332,202.905151 
	C494.349060,201.948074 494.002747,200.927048 496.322876,195.267487 
	C497.042786,193.511368 497.867737,191.798309 498.753784,189.822037 
	C504.575195,193.594284 511.101532,193.681686 517.630432,192.868378 
	C519.185852,192.674637 520.537476,190.844315 521.982849,189.766785 
	C520.744690,188.840988 519.622070,187.389206 518.246948,187.087341 
	C514.007874,186.156799 509.670074,185.680176 505.374908,185.000168 
	C498.486359,183.909561 494.935699,180.953369 494.009399,175.574631 
	C492.896088,169.109924 495.953552,162.618927 501.512634,159.921753 
	C510.149658,155.731186 519.154968,156.415955 528.243225,157.962708 
	C532.381226,158.666946 532.778320,160.729416 531.026367,164.074982 
	C530.070312,165.900635 529.441589,167.897644 528.914551,169.200912 
	C523.464111,168.783203 518.343445,168.025330 513.250610,168.181046 
	C511.225861,168.242966 509.263031,170.328415 507.272003,171.492599 
	C509.116608,172.660736 510.830261,174.428436 512.834412,174.866287 
	C516.475403,175.661743 520.311401,175.507919 524.026367,176.031952 
	C533.745422,177.402939 539.484375,185.901459 533.818115,196.524261 
z"/>
<path fill="#FFFFFF" opacity="1.000000" stroke="none" 
	d="
M894.996704,446.727203 
	C894.385071,440.009888 892.788391,433.602753 893.451904,427.438934 
	C894.075623,421.645599 899.352295,418.402130 905.035400,418.201660 
	C910.136536,418.021759 914.881592,420.274628 917.951538,424.754608 
	C923.664734,433.091614 925.803101,442.370636 924.774048,453.242889 
	C920.812256,452.788696 916.908936,452.341187 912.592468,451.846313 
	C915.536194,445.542999 913.073364,440.280334 910.894836,435.118347 
	C910.328918,433.777344 908.324158,433.043640 906.980286,432.031006 
	C906.320190,433.517639 905.089539,435.010315 905.105225,436.489807 
	C905.155518,441.238342 905.853394,445.977905 905.956787,450.728424 
	C906.117004,458.093018 903.997131,461.281586 897.942810,463.566711 
	C893.242188,465.340912 886.759827,463.010834 882.900391,458.662781 
	C874.528198,449.230560 874.494568,437.940857 875.190186,426.188019 
	C878.926208,426.602295 882.536804,427.002655 886.402649,427.431335 
	C885.690369,435.987701 885.001465,444.384827 892.167908,451.727997 
	C893.266785,449.948425 894.132690,448.546021 894.996704,446.727203 
z"/>
<path fill="#FFFFFF" opacity="1.000000" stroke="none" 
	d="
M900.505493,631.000732 
	C901.803406,632.755310 902.799072,634.235718 904.161560,636.261658 
	C901.783203,639.365540 899.164551,642.782898 896.591064,646.141418 
	C887.281982,641.487305 885.668274,626.716858 890.367188,615.153809 
	C894.341797,605.373047 905.858276,599.954834 917.716064,602.012634 
	C927.527588,603.715332 935.081421,613.599121 935.998169,625.933838 
	C936.787903,636.561096 930.006897,646.769104 919.470825,650.150574 
	C918.333496,647.129272 916.910461,644.128357 916.171936,640.967529 
	C915.910645,639.849243 916.965881,637.798462 918.027954,637.106506 
	C922.131714,634.432922 923.945435,630.510315 923.851318,626.007996 
	C923.766907,621.965027 918.580627,616.985718 914.302673,616.151367 
	C909.233032,615.162598 904.376282,616.154175 901.880737,620.915405 
	C900.415527,623.710876 900.703735,627.425354 900.505493,631.000732 
z"/>
<path fill="#FFFFFF" opacity="1.000000" stroke="none" 
	d="
M442.154724,945.999146 
	C441.458160,944.879028 440.569183,943.359985 440.999115,942.699829 
	C448.898804,930.568542 456.881866,918.488953 465.083374,906.560730 
	C466.013397,905.208130 468.331146,904.227600 470.057922,904.142700 
	C472.582703,904.018677 475.143188,904.959229 477.709747,905.270386 
	C482.257355,905.821655 482.302521,909.588257 482.956696,912.708740 
	C485.887054,926.686890 488.669739,940.695923 491.619293,955.254578 
	C486.785736,954.386719 482.071289,953.540222 477.290253,952.681763 
	C475.209930,942.510559 473.135956,932.370300 470.842712,921.158081 
	C465.793213,928.822388 461.366882,935.495422 456.988312,942.199768 
	C452.683929,948.790283 452.707153,948.797668 444.944733,946.473206 
	C444.176849,946.243225 443.366730,946.154358 442.154724,945.999146 
z"/>
<path fill="#FFFFFF" opacity="1.000000" stroke="none" 
	d="
M765.208862,231.398758 
	C766.290527,230.100388 767.188904,229.116379 768.280396,227.920822 
	C770.121338,229.227554 771.782593,230.406769 773.695923,231.764877 
	C775.817932,229.259735 778.088318,226.579376 780.702515,223.493149 
	C784.626526,226.339935 788.339417,229.033539 792.269287,231.884583 
	C791.104919,233.269196 789.962219,234.436127 789.040649,235.757324 
	C785.274658,241.156815 785.301758,241.170959 790.864502,244.990417 
	C791.663391,245.538986 792.459045,246.100662 793.196350,246.726746 
	C793.548462,247.025726 793.760315,247.489899 794.153137,248.045303 
	C791.988892,250.721939 789.849121,253.368301 787.440125,256.347595 
	C784.416016,254.203171 781.568176,252.183731 778.369385,249.915466 
	C774.555481,254.964401 770.814209,259.987671 766.993347,264.949646 
	C764.553406,268.118378 767.083679,269.819824 769.019592,271.398132 
	C770.322083,272.459930 772.171448,272.850830 773.934021,273.609833 
	C772.884033,276.986511 771.808044,280.446686 770.742737,283.872528 
	C759.877625,282.087402 751.463013,273.810120 752.140564,265.120575 
	C752.378662,262.067108 753.735840,258.803223 755.463562,256.226501 
	C758.895996,251.107666 762.940430,246.399170 766.899292,241.305923 
	C763.678589,238.750977 760.005920,236.017761 765.208862,231.398758 
z"/>
<path fill="#FFFFFF" opacity="1.000000" stroke="none" 
	d="
M383.737579,885.673828 
	C388.013458,876.646301 388.010468,876.653320 396.986542,880.485352 
	C398.141510,880.978333 399.347412,881.352173 401.145905,882.004761 
	C392.239502,901.504272 383.453247,920.740662 374.560913,940.209351 
	C370.186890,938.262634 366.021515,936.408813 361.511383,934.401550 
	C368.964478,917.999939 376.236511,901.996704 383.737579,885.673828 
z"/>
<path fill="#FFFFFF" opacity="1.000000" stroke="none" 
	d="
M150.121185,638.001221 
	C144.983673,639.026123 140.288284,640.049927 135.300980,641.137329 
	C134.388275,636.211365 133.512497,631.484619 132.580353,626.453674 
	C152.566406,622.682190 172.101135,618.995972 191.677933,615.301758 
	C192.544281,620.134399 193.388153,624.841736 194.285309,629.846252 
	C179.327957,632.635681 164.945633,635.317871 150.121185,638.001221 
z"/>
<path fill="#FFFFFF" opacity="1.000000" stroke="none" 
	d="
M877.680786,763.257568 
	C879.285461,764.428528 880.588440,765.375549 881.859863,766.299622 
	C878.631775,775.411682 875.769897,778.145203 871.854675,776.689880 
	C870.746460,780.769104 869.701660,784.910522 868.478516,788.998535 
	C867.819580,791.200928 866.657532,791.763550 864.545593,790.104492 
	C861.902283,788.028137 858.961731,786.330322 855.940735,784.330933 
	C856.683350,783.017212 857.474487,781.674438 858.212158,780.302917 
	C861.648315,773.913879 860.611511,769.982056 854.578857,765.921204 
	C848.435852,761.786011 842.350342,757.565369 835.853516,753.117920 
	C838.216125,749.205627 840.675049,745.133850 843.187988,740.972656 
	C854.746155,748.430298 866.062622,755.731995 877.680786,763.257568 
z"/>
<path fill="#FFFFFF" opacity="1.000000" stroke="none" 
	d="
M220.791199,776.297913 
	C225.981476,781.067627 230.215500,781.030151 235.703827,776.839905 
	C241.470795,772.437012 247.414993,768.266296 253.591583,763.768555 
	C256.426392,767.709167 259.141571,771.483521 262.046600,775.521729 
	C249.475311,784.656555 237.000351,793.721375 224.523956,802.787231 
	C216.460876,792.664978 216.460876,792.664978 218.336777,789.682678 
	C214.376144,786.677979 210.448944,783.698669 205.854767,780.213379 
	C210.108261,776.994690 213.528519,774.406555 216.942154,771.823425 
	C218.265717,773.370728 219.398621,774.695068 220.791199,776.297913 
z"/>
<path fill="#FFFFFF" opacity="1.000000" stroke="none" 
	d="
M287.285706,246.274536 
	C288.731598,245.172104 289.783752,244.065689 291.073120,243.496140 
	C293.086304,242.606796 295.260223,242.081253 298.626007,240.994904 
	C299.517059,239.477463 301.146851,236.374664 303.088531,233.481155 
	C305.320648,230.154892 307.720459,230.224930 309.974762,233.627335 
	C311.485718,235.907867 313.085510,238.129562 314.733734,240.504669 
	C314.576965,240.723221 314.378632,241.153168 314.051819,241.433014 
	C303.101379,250.809250 307.020386,254.452499 313.691345,263.178101 
	C317.032227,267.547974 320.484741,271.832520 324.255188,276.623840 
	C320.508789,279.614594 316.915527,282.483124 312.980591,285.624359 
	C308.458130,279.938293 304.214203,274.663391 300.038269,269.335236 
	C295.648590,263.734375 291.531403,257.902802 286.878235,252.533325 
	C284.742188,250.068420 284.387360,248.479797 287.285706,246.274536 
z"/>
<path fill="#FFFFFF" opacity="1.000000" stroke="none" 
	d="
M939.965698,598.865540 
	C936.515747,599.552002 933.087097,599.984131 929.680176,599.853088 
	C928.753967,599.817444 927.270630,598.184021 927.098083,597.113831 
	C925.279236,585.831665 923.395874,583.965088 911.766479,583.036804 
	C908.786621,582.798950 905.761475,583.153931 902.775879,582.954956 
	C900.033020,582.772095 897.315552,582.209778 894.022644,581.733032 
	C894.449646,577.352844 894.882996,572.907471 895.362122,567.992859 
	C910.366333,569.038452 925.373901,570.084290 940.690186,571.151611 
	C940.690186,575.536926 940.690186,579.953064 940.690186,584.722900 
	C939.655151,584.883850 938.428284,585.074646 937.815125,585.170044 
	C938.548950,589.623169 939.272095,594.011230 939.965698,598.865540 
z"/>
<path fill="#FFFFFF" opacity="1.000000" stroke="none" 
	d="
M184.108612,414.983337 
	C178.792709,412.748535 173.872650,410.530396 168.673477,408.186432 
	C170.582855,403.773102 172.417664,399.532104 174.320679,395.133453 
	C188.656235,401.157104 202.882584,407.134857 217.299286,413.192596 
	C215.310867,417.717102 213.519684,421.792786 211.510376,426.364807 
	C202.397491,422.529846 193.450989,418.764954 184.108612,414.983337 
z"/>
<path fill="#FFFFFF" opacity="1.000000" stroke="none" 
	d="
M584.019592,191.242767 
	C585.024414,184.544357 586.027649,178.302017 586.994812,172.054108 
	C587.673523,167.670319 588.303101,163.278931 588.953247,158.900208 
	C594.118164,159.761307 598.398804,160.474991 602.846375,161.216507 
	C600.748901,176.450745 598.675110,191.512955 596.531738,207.080338 
	C592.100403,206.361145 587.600647,205.630829 582.767212,204.846359 
	C583.209229,200.141541 583.605896,195.918991 584.019592,191.242767 
z"/>
<path fill="#FFFFFF" opacity="1.000000" stroke="none" 
	d="
M832.437866,811.071533 
	C829.034485,816.567566 825.903442,817.998779 821.621826,816.151917 
	C816.974976,814.147461 814.054932,809.444275 815.113953,805.670166 
	C816.244202,801.642639 821.179626,798.422424 825.346313,799.005676 
	C829.154785,799.538757 834.832703,804.674988 832.437866,811.071533 
z"/>
<path fill="#FFFFFF" opacity="1.000000" stroke="none" 
	d="
M211.670013,740.818237 
	C207.358627,744.153137 203.123642,743.271362 200.091721,740.224487 
	C198.288239,738.412292 197.501495,734.771057 197.644577,732.024353 
	C197.878204,727.539856 201.613052,725.123413 205.591644,725.250549 
	C208.305191,725.337219 211.728012,727.129272 213.443054,729.271912 
	C216.427689,733.000671 215.549591,737.186340 211.670013,740.818237 
z"/>
<path fill="#FFFFFF" opacity="1.000000" stroke="none" 
	d="
M361.228638,227.602081 
	C361.130463,232.925507 358.434967,236.631317 354.838745,236.999374 
	C349.402374,237.555771 345.308533,235.405884 344.134430,231.377945 
	C342.836578,226.925507 344.761505,222.518005 348.789520,220.719131 
	C354.673859,218.091232 360.222900,221.055893 361.228638,227.602081 
z"/>
<path fill="#FFFFFF" opacity="1.000000" stroke="none" 
	d="
M602.486328,140.180420 
	C606.772583,143.321732 607.316223,147.388016 605.030090,151.191528 
	C602.849060,154.820221 599.181641,156.000961 594.772095,154.371872 
	C590.486572,152.788620 588.358948,150.109787 589.020996,145.530914 
	C589.811401,140.065231 594.804321,137.993576 602.486328,140.180420 
z"/>
<path fill="#FFFFFF" opacity="1.000000" stroke="none" 
	d="
M152.984253,392.134155 
	C157.265900,387.246887 162.343964,386.675568 165.681381,390.315979 
	C168.417404,393.300385 167.348907,401.754700 163.304382,403.863678 
	C161.039597,405.044617 157.060379,405.389130 155.148209,404.135651 
	C153.051300,402.761047 152.163422,399.197357 151.332977,396.413330 
	C151.022079,395.371033 152.356430,393.837982 152.984253,392.134155 
z"/>
<path fill="#000000" opacity="1.000000" stroke="none" 
	d="
M572.955078,954.440186 
	C566.030396,949.810303 562.653259,941.816406 564.445618,935.003418 
	C567.198120,924.540710 574.745728,921.632080 581.835693,920.981812 
	C585.380188,920.656677 588.907288,920.142029 593.085510,919.634949 
	C594.396545,931.585815 595.648193,942.995300 596.928772,954.668945 
	C589.004517,956.421692 581.129211,956.867676 572.955078,954.440186 
z"/>
<path fill="#000000" opacity="1.000000" stroke="none" 
	d="
M182.834503,440.974426 
	C187.862350,444.044678 189.011978,448.734039 187.651672,453.466492 
	C186.467712,457.585449 184.038757,461.681885 178.783081,461.960205 
	C174.158340,462.205109 170.065598,461.025391 167.845566,456.392029 
	C165.937927,452.410614 166.957687,445.284149 170.245361,442.360413 
	C173.852188,439.152771 177.979675,437.997925 182.834503,440.974426 
z"/>
<path fill="#000000" opacity="1.000000" stroke="none" 
	d="
M859.336060,331.246460 
	C862.750732,329.053772 865.861511,327.075714 869.592102,324.703552 
	C872.252625,329.479340 875.255310,334.141205 877.516357,339.138611 
	C879.658813,343.873779 876.157959,347.112335 872.869385,349.416504 
	C869.690796,351.643524 865.814880,351.906128 862.871887,348.355347 
	C859.465759,344.245636 856.155640,340.056244 852.824158,335.926514 
	C855.179382,334.232422 857.105835,332.846771 859.336060,331.246460 
z"/>
<path fill="#000000" opacity="1.000000" stroke="none" 
	d="
M304.380768,860.868530 
	C296.797638,861.019775 291.531982,857.347412 291.000854,851.925842 
	C290.335602,845.134888 295.286591,839.101685 302.293610,837.881775 
	C307.211456,837.025574 310.576355,839.953247 312.471497,843.358704 
	C313.881134,845.891663 314.014191,850.289368 312.731964,852.871338 
	C311.160431,856.035889 307.520447,858.173157 304.380768,860.868530 
z"/>
<path fill="#000000" opacity="1.000000" stroke="none" 
	d="
M659.461914,924.807739 
	C654.482361,921.903687 650.880005,914.350952 652.260193,910.282166 
	C654.200745,904.561401 658.486023,901.624146 664.448975,902.008667 
	C669.325439,902.323181 671.884033,905.716248 673.799866,909.583801 
	C676.018127,914.062073 675.627502,918.861023 672.064514,922.142395 
	C668.878601,925.076416 664.725159,927.668701 659.461914,924.807739 
z"/>
<path fill="#000000" opacity="1.000000" stroke="none" 
	d="
M403.993530,178.975800 
	C409.371552,176.588806 414.245178,175.373749 418.621918,180.118607 
	C422.895508,184.751694 421.764771,191.461868 416.128510,194.366547 
	C414.012054,195.457275 411.716400,196.195938 409.524292,197.145493 
	C407.328796,198.096497 405.160583,199.110428 402.707581,200.220215 
	C400.508789,194.166428 398.372711,188.285339 396.022034,181.813477 
	C398.577972,180.861420 401.078674,179.929932 403.993530,178.975800 
z"/>
<path fill="#000000" opacity="1.000000" stroke="none" 
	d="
M169.241165,670.261597 
	C172.097351,667.806885 174.698349,665.611450 177.587860,663.172485 
	C179.320251,668.467163 181.010727,673.633667 182.836807,679.214661 
	C175.805054,678.703369 169.027039,678.210510 160.767639,677.609863 
	C164.075211,674.756836 166.530594,672.638855 169.241165,670.261597 
z"/>
<path fill="#000000" opacity="1.000000" stroke="none" 
	d="
M812.266602,287.764130 
	C807.681641,283.534973 803.354553,279.556610 799.005981,275.558502 
	C804.217712,270.973999 806.945374,273.077515 811.265137,275.906464 
	C815.041931,278.379822 816.536011,283.764160 814.855103,287.197632 
	C814.597290,287.724182 813.326660,287.754913 812.266602,287.764130 
z"/>
<path fill="#000000" opacity="1.000000" stroke="none" 
	d="
M917.629761,494.155823 
	C916.395996,488.382263 915.458374,482.904633 914.470764,477.135254 
	C919.364380,476.600037 922.074402,479.636444 923.803101,483.614166 
	C926.107788,488.917175 924.471680,492.886963 918.432068,497.220490 
	C918.237732,496.157410 918.081848,495.304596 917.629761,494.155823 
z"/>
<path fill="#000000" opacity="1.000000" stroke="none" 
	d="
M726.983521,894.850830 
	C724.867554,900.051880 721.899658,904.079041 716.100403,903.877686 
	C713.333313,903.781616 710.611389,902.386597 706.585083,901.202271 
	C713.943481,897.268494 719.703674,894.189209 725.952759,890.848450 
	C726.341248,892.190857 726.669434,893.325195 726.983521,894.850830 
z"/>
<path fill="#000000" opacity="1.000000" stroke="none" 
	d="
M270.251587,287.248413 
	C268.681885,289.180542 267.362549,290.863068 266.033905,292.557434 
	C261.743805,288.118713 262.727997,284.384125 265.508087,281.043365 
	C270.228485,275.371002 273.194122,274.736145 279.473389,277.857910 
	C276.393494,280.995972 273.447723,283.997375 270.251587,287.248413 
z"/>
<path fill="#000000" opacity="1.000000" stroke="none" 
	d="
M893.835327,400.480103 
	C892.842346,401.604797 892.003906,402.360321 890.782288,403.461151 
	C887.904419,397.306213 885.172302,391.462921 882.250183,385.213379 
	C885.353333,382.866333 887.776001,384.837646 890.264893,386.680267 
	C894.904663,390.115387 896.147705,394.515778 893.835327,400.480103 
z"/>
<path fill="#000000" opacity="1.000000" stroke="none" 
	d="
M254.074524,809.586792 
	C258.561157,814.220520 262.800018,818.564392 267.159729,823.032166 
	C262.168488,825.803284 258.217896,825.468750 254.857635,822.357544 
	C251.165924,818.939392 249.915527,813.724060 252.029587,810.067139 
	C252.290863,809.615173 253.211578,809.544373 254.074524,809.586792 
z"/>
<path fill="#000000" opacity="1.000000" stroke="none" 
	d="
M241.785065,315.947754 
	C242.638092,316.212738 243.112823,316.432098 243.587585,316.651428 
	C239.586029,321.869080 235.584473,327.086731 231.555069,332.340668 
	C228.115601,329.142853 227.688385,324.704163 230.061081,320.706268 
	C232.376175,316.805450 237.507965,314.632477 241.785065,315.947754 
z"/>
<path fill="#000000" opacity="1.000000" stroke="none" 
	d="
M880.997192,731.024170 
	C882.018127,728.794861 883.024597,726.962463 883.983398,725.105530 
	C884.855896,723.415588 885.676697,721.698914 886.531738,719.970886 
	C891.051025,723.385071 891.859131,726.761353 889.510376,732.016174 
	C887.340881,736.870056 883.926208,738.498108 877.824402,737.381409 
	C878.897095,735.339905 879.929443,733.375122 880.997192,731.024170 
z"/>
<path fill="#000000" opacity="1.000000" stroke="none" 
	d="
M514.292603,938.000000 
	C519.774170,938.285339 524.798950,938.570618 530.068481,938.869873 
	C528.929810,944.899780 524.502197,946.289673 520.069519,946.880432 
	C515.591736,947.477112 511.651031,943.842712 509.416840,938.000000 
	C510.946564,938.000000 512.391174,938.000000 514.292603,938.000000 
z"/>
<path fill="#000000" opacity="1.000000" stroke="none" 
	d="
M427.682922,922.238525 
	C425.405212,926.743469 420.975739,928.354004 416.279663,926.770264 
	C411.205536,925.059021 408.855194,921.486572 409.452942,915.568054 
	C415.535400,917.729553 421.474609,919.840210 427.682922,922.238525 
z"/>
<path fill="#000000" opacity="1.000000" stroke="none" 
	d="
M721.123047,240.614548 
	C721.030701,238.262268 720.451416,235.397461 721.559631,234.390991 
	C722.685425,233.368607 725.525818,233.908157 727.520996,234.275574 
	C729.032288,234.553864 730.609558,235.394577 731.770386,236.422226 
	C733.220825,237.706284 734.274414,239.438568 735.499329,240.977341 
	C733.021790,242.165466 730.562378,244.227386 728.061218,244.279404 
	C725.857239,244.325241 723.606567,242.125504 721.123047,240.614548 
z"/>
<path fill="#000000" opacity="1.000000" stroke="none" 
	d="
M469.697449,200.081802 
	C467.252960,200.442657 465.119385,201.173996 463.188934,200.814545 
	C461.972412,200.588028 460.358398,198.820969 460.195648,197.578262 
	C460.009033,196.153641 460.853271,193.606796 461.907990,193.181976 
	C465.935883,191.559647 470.228607,190.594818 474.348358,189.405807 
	C476.286072,195.093185 473.460693,197.671494 469.697449,200.081802 
z"/>
<path fill="#000000" opacity="1.000000" stroke="none" 
	d="
M637.563293,200.798096 
	C631.905518,203.565964 627.450623,202.985184 623.703674,199.215515 
	C620.460266,195.952423 619.880737,189.914444 622.350708,185.117752 
	C624.915100,180.137512 628.852295,178.147064 634.439941,179.006058 
	C642.466187,180.239929 645.744568,190.807602 640.337036,198.125534 
	C639.653625,199.050415 638.722168,199.791992 637.563293,200.798096 
z"/>
<path fill="#000000" opacity="1.000000" stroke="none" 
	d="
M356.176697,891.322937 
	C352.678467,892.316284 349.232788,894.091125 346.258728,893.498657 
	C340.572632,892.365967 337.675415,887.693909 338.000336,882.500854 
	C338.358276,876.779846 343.208405,870.185059 348.346405,870.275330 
	C351.833374,870.336548 355.998688,872.135559 358.542145,874.547668 
	C361.247894,877.113647 362.311340,881.330750 359.934784,885.277893 
	C358.776978,887.200806 357.606842,889.116394 356.176697,891.322937 
z"/>
<path fill="#000000" opacity="1.000000" stroke="none" 
	d="
M909.738159,545.299561 
	C904.521790,542.695801 902.036560,537.210327 904.274109,532.658203 
	C904.900330,531.384277 907.148376,530.068665 908.498169,530.213196 
	C909.998657,530.373840 912.059570,531.916626 912.565979,533.327881 
	C913.534363,536.026733 913.634277,539.051514 913.983093,541.954407 
	C914.336914,544.898621 912.951050,546.098083 909.738159,545.299561 
z"/>
</svg>